<svg xmlns="http://www.w3.org/2000/svg" viewBox="0 0 100.0 100.0">
	<polyline points="25.9017,7.05431 26.0748,7.41223 26.9126,9.21568 26.9168,9.29826 26.8153,9.47891 25.4268,11.1241 24.088,12.5918 23.4488,13.215 21.8003,14.6653 20.8787,15.4296 19.997,16.115 19.5126,16.4608 18.5263,17.1096 17.5232,17.7336 17.1101,17.9658 16.8094,18.1051 16.4393,18.2392 16.0601,18.3425 15.6739,18.4143 14.4887,18.5718 12.5659,18.8011 " fill="none" stroke-width="1" stroke="rgb(232,26,75)" />
	<polyline points="43.0484,13.8274 43.0152,14.956 42.9692,15.9522 42.8981,16.8443 42.7873,17.7301 42.6615,18.4106 42.4695,19.1703 42.0608,20.5134 41.763,21.3573 41.109,22.9992 40.3554,24.7644 40.0138,25.4895 39.101,27.2657 38.3915,28.5845 38.1411,29.0147 37.5074,30.0318 36.8125,31.1298 36.5559,31.5401 35.786,32.7978 35.1582,33.8417 35.086,33.9759 34.7569,34.6717 34.6789,34.8514 34.6319,34.9687 34.4928,35.2993 34.0933,36.1355 33.5755,37.0769 32.9401,38.0845 32.3088,38.9805 31.8788,39.529 31.3569,40.1316 30.1398,41.4541 29.3781,42.2443 28.4127,43.197 27.5835,43.98 26.5484,44.9212 25.5756,45.7827 24.5956,46.6363 23.6896,47.4227 22.7367,48.2599 22.6246,48.3738 21.8207,49.3424 21.7885,49.4327 21.8241,49.589 22.4955,50.9647 23.0775,52.0878 23.0821,52.099 23.0876,52.1148 23.0965,52.1285 24.163,53.1726 24.3495,53.2548 25.614,53.2807 27.7091,53.1341 35.4469,52.3055 38.1295,52.0016 39.7188,51.8218 41.905,51.5806 43.8928,51.3632 44.3889,51.3072 44.9845,51.2373 " fill="none" stroke-width="1" stroke="rgb(232,26,75)" />
	<polyline points="5.02578,58.9948 5.63428,58.7267 5.83472,58.6311 7.724,57.6586 11.4419,55.7099 13.3775,54.6692 14.3337,54.1301 15.192,53.6199 16.8994,52.5793 19.8399,50.798 19.9794,50.7379 20.1466,50.71 20.396,50.7092 21.3058,50.7639 22.1348,50.8214 " fill="none" stroke-width="1" stroke="rgb(232,26,75)" />
	<polyline points="81.494,8.00004 81.6608,8.63069 81.9746,10.1089 82.3239,12.329 82.8925,16.8854 83.2277,19.7485 83.7962,24.6697 83.9903,26.5052 84.4417,31.3937 85.1437,39.5652 85.1527,39.7704 85.2142,56.6986 85.2527,74.8979 85.2367,76.9963 85.1815,79.2934 85.1217,80.6899 85.0696,81.386 84.924,82.7766 84.8454,83.3698 84.5993,84.9493 84.416,86.0762 " fill="none" stroke-width="1" stroke="rgb(232,26,75)" />
	<polyline points="82.5106,9.15206 83.4757,9.40651 84.6067,9.71358 86.6273,10.2787 87.9733,10.661 " fill="none" stroke-width="1" stroke="rgb(232,26,75)" />
	<polyline points="33.0109,13.9954 33.4925,13.9982 33.7101,14.0133 34.3248,14.0998 34.6092,14.1535 34.6795,14.1729 35.2119,14.3375 35.6127,14.4095 36.2557,14.4125 39.9342,14.1058 43.6151,13.7378 48.1888,13.259 50.0763,13.0783 51.8652,12.9394 52.158,12.9366 52.4497,12.9678 53.9207,13.228 54.5017,13.3525 55.6636,13.6416 56.073,13.7489 " fill="none" stroke-width="1" stroke="rgb(232,26,75)" />
	<polyline points="49.9876,34.7118 50.5456,33.577 51.124,32.3606 51.3497,31.8311 52.026,30.0399 52.4852,28.7216 52.7327,27.9053 53.2542,25.933 53.7993,23.7009 55.1139,18.053 55.5786,16.0056 55.8588,14.7364 56.073,13.7489 " fill="none" stroke-width="1" stroke="rgb(232,26,75)" />
	<polyline points="12.2945,17.5825 12.7369,19.88 13.0723,21.6473 13.867,25.8726 14.2635,27.9343 14.6033,29.5979 14.7422,30.1781 15.0656,31.3296 15.2209,31.8005 15.4083,32.2713 15.9679,33.5398 16.6651,35.0774 " fill="none" stroke-width="1" stroke="rgb(232,26,75)" />
	<polyline points="66.4941,16.0001 66.6396,18.0941 66.8747,21.2776 67.0555,23.5347 67.1158,24.1914 67.502,28.09 67.5121,28.2871 67.5162,31.5992 67.5005,35.1984 67.3865,51.3974 67.38,53.3965 67.3881,54.9958 67.4089,56.6954 67.4299,57.995 " fill="none" stroke-width="1" stroke="rgb(232,26,75)" />
	<polyline points="23.0773,21.0745 23.3196,21.3909 24.2951,22.6558 25.4607,24.1549 26.8274,25.8988 27.8077,27.1428 28.2944,27.7585 " fill="none" stroke-width="1" stroke="rgb(232,26,75)" />
	<polyline points="16.6651,35.0774 17.9322,34.2358 18.8827,33.6182 20.1232,32.8405 21.8317,31.8049 24.4102,30.276 25.3585,29.7207 26.2201,29.215 26.557,29.0062 26.884,28.7838 27.7742,28.1409 28.2944,27.7585 " fill="none" stroke-width="1" stroke="rgb(232,26,75)" />
	<polyline points="43.0828,31.0089 43.0838,31.1822 43.0886,31.1912 43.1537,31.2284 44.0841,31.6578 44.9938,32.0713 46.107,32.5851 46.7955,32.9233 47.4948,33.2997 49.9876,34.7118 " fill="none" stroke-width="1" stroke="rgb(232,26,75)" />
	<polyline points="33.3062,37.7698 35.0117,39.1634 35.1541,39.2817 35.237,39.3529 36.159,40.1565 36.2985,40.2691 36.7829,40.6213 37.1946,40.8975 37.9569,41.3701 42.1536,43.8975 44.1167,45.0942 45.9745,46.2688 47.7991,47.49 49.4967,48.7124 54.5479,52.5411 54.855,52.8093 54.8736,52.8559 54.8522,53.5332 54.8612,53.6183 54.9099,53.7636 54.976,53.9115 " fill="none" stroke-width="1" stroke="rgb(232,26,75)" />
	<polyline points="12.0858,65.8432 13.0786,65.7256 16.2565,65.3531 23.1106,64.5608 28.1782,63.9906 30.9621,63.6975 35.1424,63.2963 45.4995,62.3746 47.2394,62.2629 48.9817,62.2314 50.968,62.2856 53.727,62.4503 53.8917,62.4785 53.9999,62.5148 " fill="none" stroke-width="1" stroke="rgb(232,26,75)" />
	<polyline points="32.9264,52.6333 33.0406,56.0094 33.3975,66.8028 33.4806,69.5009 33.6919,76.6973 33.7698,78.8943 33.8499,80.4898 33.905,81.1849 34.0915,82.9737 34.1994,83.9372 " fill="none" stroke-width="1" stroke="rgb(232,26,75)" />
	<polyline points="39.1028,78.9497 39.2347,78.8826 39.3881,78.7964 39.4951,78.7204 39.6124,78.6056 40.8284,77.1704 41.5622,76.2366 42.7977,74.547 43.8482,73.0885 45.2482,71.2286 46.0489,70.3275 46.8095,69.6871 47.1383,69.5398 47.8955,69.4025 48.0262,69.3859 48.0775,69.3751 48.2229,69.3242 48.4059,69.2475 48.6239,69.1473 48.7683,69.0781 " fill="none" stroke-width="1" stroke="rgb(232,26,75)" />
	<polyline points="18.0769,70.0779 18.2946,70.5429 18.3649,70.6734 18.7452,71.2845 19.2,71.9784 20.2603,73.554 21.984,76.1286 23.4561,78.3824 24.5405,80.1053 24.6299,80.2761 24.6944,80.4501 24.851,80.9765 " fill="none" stroke-width="1" stroke="rgb(232,26,75)" />
	<polyline points="12.0047,87.5298 12.6522,87.6255 13.7784,87.6959 15.1617,87.6053 19.2049,86.9244 30.9422,84.5017 36.9908,83.151 39.515,82.536 41.834,81.923 45.688,80.8554 49.1508,79.8733 50.8787,79.3703 52.0266,79.0223 53.36,78.6001 54.819,78.1238 54.9122,78.0908 54.9399,78.0797 " fill="none" stroke-width="1" stroke="rgb(232,26,75)" />
	<polyline points="72.0499,80.2825 72.4009,80.4738 73.3388,80.9843 76.0439,82.4476 77.5043,83.2223 78.6601,83.8112 79.2003,84.0646 79.7521,84.2944 81.8962,85.1245 83.4281,85.7057 84.416,86.0762 " fill="none" stroke-width="1" stroke="rgb(232,26,75)" />
</svg>
