<?xml version="1.0" standalone="no" ?>
<!DOCTYPE svg PUBLIC "-//W3C//DTD SVG 1.1//EN" "http://www.w3.org/Graphics/SVG/1.1/DTD/svg11.dtd">
<svg width="100px" height="100px" xmlns="http://www.w3.org/2000/svg" version="1.1" >
	<image style="overflow: visible; opacity: 0.4" width="100" height="100" xlink:href="../sample_inputs/b.png" transform="matrix(1 0 -0.5 0 1 0 )" />
	<polyline points="91.9701,14.1272 91.8923,14.1346 91.8196,14.1346 91.4341,14.1001 91.0652,14.049 90.9919,14.0283 90.4349,13.8104 88.8234,13.2573 88.4925,13.2379 87.1147,13.54 86.9419,13.5911 86.8719,13.6158 86.7033,13.6764 86.1063,13.8774 85.9394,13.9188 85.7347,13.9406 85.5707,13.9341 85.3104,13.8927 85.265,13.8773 84.6364,13.5729 84.366,13.4673 83.0303,13.1009 82.6976,13.0897 81.413,13.3545 80.8417,13.5131 80.4067,13.651 80.2741,13.6892 79.3287,13.9214 78.8424,14.0284 77.3027,14.3281 76.0938,14.5424 73.9227,14.8913 70.6599,15.3816 66.8985,15.917 64.9284,16.1757 61.2442,16.6151 60.7484,16.6507 59.2603,16.6643 58.8103,16.6214 58.5051,16.5289 57.6517,16.1324 57.0645,15.8326 " fill="none" stroke-width="1" stroke="rgb(232,26,75)" />
	<polyline points="71.1303,29.8414 72.2976,29.0241 72.8585,28.6106 73.6355,27.9896 74.3096,27.4031 75.4755,26.3139 79.6593,22.2986 81.6089,20.4321 82.4133,19.6841 83.757,18.4894 84.374,17.985 86.2939,16.5538 89.2055,14.4931 90.1552,13.8697 90.54,13.641 " fill="none" stroke-width="1" stroke="rgb(232,26,75)" />
	<polyline points="51.0224,39.9072 51.7034,40.1474 52.4289,40.3652 52.8225,40.4301 53.6801,40.4524 56.2835,40.3833 56.4863,40.3688 59.8046,39.9998 65.1683,39.3843 71.8228,38.6068 77.1823,37.977 77.302,37.9665 79.3643,37.8472 79.4762,37.8438 79.6614,37.8452 80.512,37.8599 80.7496,37.86 81.5163,37.8449 81.7196,37.839 82.6994,37.8104 83.5559,37.8039 83.7672,37.8195 84.1498,37.8763 84.7153,37.9483 85.2515,37.9696 85.9055,37.9261 86.492,37.8374 87.5857,37.6276 87.9231,37.5706 88.1318,37.5496 88.4616,37.5354 88.7657,37.5264 88.9151,37.5186 89.0522,37.5038 89.3083,37.4606 89.9857,37.3189 90.3949,37.2149 91.6192,36.8588 92.6359,36.5554 93.2185,36.3829 93.9834,36.1603 " fill="none" stroke-width="1" stroke="rgb(232,26,75)" />
	<polyline points="80.0311,47.8417 80.1579,47.7979 80.5226,47.6482 80.7331,47.5302 83.3291,45.7411 85.2129,44.4228 86.8472,43.2733 88.7221,41.9441 89.9465,41.0385 92.028,39.3722 93.0134,38.4401 93.2208,38.1022 93.6089,36.9252 93.6766,36.7164 93.733,36.5923 93.9834,36.1603 " fill="none" stroke-width="1" stroke="rgb(232,26,75)" />
	<polyline points="9.86044,11.5287 11.239,11.8898 12.4754,12.2498 13.0442,12.4513 13.7176,12.7253 14.3899,12.987 15.363,13.3008 16.6735,13.6166 17.4644,13.7112 19.0829,13.7141 25.6433,13.4187 28.9352,13.2184 30.6297,13.0872 35.2183,12.6918 37.8024,12.4777 40.2944,12.2938 41.9901,12.1924 43.1876,12.1461 44.0854,12.1376 44.9823,12.1595 45.9778,12.2155 46.9713,12.2991 47.6649,12.3765 48.8123,12.5248 " fill="none" stroke-width="1" stroke="rgb(232,26,75)" />
	<polyline points="9.86044,11.5287 10.7283,17.3868 10.9776,19.1685 11.8705,26.0094 12.2373,28.9859 13.2523,37.6525 13.6082,40.7373 " fill="none" stroke-width="1" stroke="rgb(232,26,75)" />
	<polyline points="45.1183,38.711 45.3753,37.1623 45.8588,34.2018 46.2019,32.0294 46.8017,28.0752 47.2769,24.8101 48.1907,18.2744 48.3671,16.8872 48.5518,15.1992 48.7484,13.2099 48.8123,12.5248 " fill="none" stroke-width="1" stroke="rgb(232,26,75)" />
	<polyline points="28.8413,13.2877 28.8914,15.0075 28.9486,17.2063 29.1749,27.0031 29.2525,30.802 29.3968,38.8006 29.5408,46.7992 29.6226,50.798 29.685,53.0966 29.7925,56.0943 30.0767,62.7872 30.1982,65.0813 30.3251,66.873 30.3807,67.3662 30.6061,68.8472 30.8037,70.062 " fill="none" stroke-width="1" stroke="rgb(232,26,75)" />
	<polyline points="12.1067,27.0445 17.1559,26.5683 19.2462,26.3716 24.2247,25.911 27.312,25.6429 31.8959,25.2826 37.8784,24.8536 39.0744,24.7892 40.2718,24.7587 41.37,24.7602 42.368,24.788 43.0652,24.8283 45.0576,24.9857 47.2514,25.1716 " fill="none" stroke-width="1" stroke="rgb(232,26,75)" />
	<polyline points="66.2261,24.0818 66.7106,24.6946 66.7781,24.7777 67.258,25.3507 67.9058,26.1202 68.9229,27.3296 70.2001,28.8625 71.8472,30.8715 73.4074,32.8199 73.6996,33.2198 74.6897,34.7176 74.8923,35.0573 75.062,35.3959 75.3055,35.9592 75.5604,36.6091 75.8001,37.2657 76.0731,38.0439 " fill="none" stroke-width="1" stroke="rgb(232,26,75)" />
	<polyline points="13.6082,40.7373 18.2818,40.2754 19.9733,40.1089 22.2623,39.8872 25.7463,39.5608 32.5179,38.9513 34.3109,38.8082 36.0063,38.7025 37.9032,38.6156 39.7013,38.5606 40.9971,38.5434 41.9982,38.5518 42.7962,38.5781 43.8937,38.6358 45.1183,38.711 " fill="none" stroke-width="1" stroke="rgb(232,26,75)" />
	<polyline points="69.378,45.0031 69.4032,45.0683 69.6695,45.8317 69.8004,46.3231 69.9743,47.3587 70.2994,50.115 70.4114,51.5047 70.4702,53.0007 70.4946,55.0995 70.4936,64.4992 70.4609,75.299 70.4368,78.0983 70.3985,80.0971 70.3386,81.9949 70.2968,82.7924 70.2393,83.4883 70.1611,84.1824 69.9278,85.9665 69.7193,87.4976 " fill="none" stroke-width="1" stroke="rgb(232,26,75)" />
	<polyline points="11.0271,54.8564 11.7402,55.0293 11.8603,55.0786 12.4819,55.4399 12.8772,55.6366 13.049,55.6669 16.9047,55.4478 20.6905,55.1643 24.8734,54.7997 25.9678,54.6915 31.0388,54.1511 37.2046,53.5075 39.0947,53.3379 40.687,53.2406 42.5778,53.1793 44.7996,53.1513 45.1469,53.1594 46.9948,53.2606 " fill="none" stroke-width="1" stroke="rgb(232,26,75)" />
	<polyline points="7.02208,74.9873 7.67235,74.9775 7.92721,74.9879 8.18483,75.0233 8.38785,75.0718 8.55787,75.1303 8.96424,75.2983 9.48165,75.5232 9.89986,75.7054 10.177,75.8182 10.3155,75.8613 10.4357,75.8789 10.612,75.876 11.4224,75.7953 11.5677,75.7675 13.7666,75.1607 16.7381,74.3081 21.0591,73.0305 24.1202,72.0996 27.7671,70.9589 32.8897,69.3226 34.6929,68.7277 39.8994,66.9578 42.0723,66.2048 43.6834,65.6293 47.58,64.1995 49.639,63.4225 49.7847,63.354 49.8036,63.3323 49.8814,63.116 49.9072,63.0326 49.9154,63.0034 " fill="none" stroke-width="1" stroke="rgb(232,26,75)" />
	<polyline points="60.0127,82.3883 60.0974,82.7254 60.1315,82.8532 60.1987,83.0927 60.2146,83.1547 60.2736,83.394 60.2966,83.4474 60.4504,83.6572 60.5606,83.7396 62.669,84.6532 67.2531,86.5321 68.8289,87.1559 69.7193,87.4976 " fill="none" stroke-width="1" stroke="rgb(232,26,75)" />
</svg>
