<?xml version="1.0" standalone="no" ?>
<!DOCTYPE svg PUBLIC "-//W3C//DTD SVG 1.1//EN" "http://www.w3.org/Graphics/SVG/1.1/DTD/svg11.dtd">
<svg width="100px" height="100px" xmlns="http://www.w3.org/2000/svg" version="1.1" >
	<image style="overflow: visible; opacity: 0.4" width="100" height="100" xlink:href="../sample_inputs/c.png" transform="matrix(1 0 -0.5 0 1 0 )" />
	<polyline points="77.4816,30.2376 76.6595,30.1554 75.267,30.029 74.6712,29.992 73.4748,29.9599 72.7782,29.9668 71.4219,30.0294 69.3883,30.1654 65.9002,30.4445 56.4365,31.2644 54.4471,31.456 41.8169,32.7774 38.9327,33.0737 37.2415,33.2364 34.4979,33.4855 " fill="none" stroke-width="1" stroke="rgb(232,26,75)" />
	<polyline points="16.0062,15.6023 16.0125,15.6067 16.2459,15.7573 16.7594,16.0607 17.2368,16.3002 17.9169,16.5714 18.1764,16.6287 19.7846,16.7507 23.0741,16.9063 24.5708,16.9417 25.8148,16.9337 26.9663,16.8935 28.2628,16.8171 29.9571,16.6879 32.0484,16.5039 38.8185,15.8691 48.574,14.9425 52.8161,14.5393 53.0411,14.5191 64.0065,13.5972 68.5912,13.2312 70.8841,13.0766 72.8789,12.9817 74.3749,12.9482 76.0709,12.9517 77.7104,12.9823 77.887,12.9934 80.1704,13.2313 81.7701,13.4091 81.9721,13.4348 81.9952,13.4385 " fill="none" stroke-width="1" stroke="rgb(232,26,75)" />
	<polyline points="55.2501,14.397 55.3864,16.0206 55.5312,17.9117 55.5456,18.3058 55.5324,18.6667 55.4789,19.1949 55.3907,19.7856 55.2772,20.3719 55.1184,21.051 54.9855,21.5307 54.6589,22.5793 54.4093,23.3382 53.4573,26.1754 53.1857,27.0362 52.9767,27.8026 52.8271,28.4802 52.6732,29.3627 52.4991,30.5482 52.3596,31.587 " fill="none" stroke-width="1" stroke="rgb(232,26,75)" />
	<polyline points="25.2031,17.0246 25.3373,18.8081 25.4175,20.0046 25.4748,21.1462 25.5208,22.6976 25.5135,23.2935 25.4138,25.0864 25.2785,26.7766 25.0738,28.7624 24.9215,29.9501 24.7647,30.9359 24.5786,31.917 24.3246,33.0885 23.9986,34.44 23.3898,36.768 22.8219,38.7869 22.1815,40.8881 21.5228,42.8835 20.8521,44.7593 20.1679,46.5288 19.2147,48.8371 18.3737,50.7584 17.4951,52.6477 16.8214,53.9996 15.8355,55.8505 14.7112,57.8538 13.3949,60.0928 12.1912,62.0494 11.1064,63.7263 10.0919,65.2099 8.81703,66.978 7.95372,68.1046 5.57593,71.0568 4.29797,72.5905 3.25227,73.7972 2.1902,74.9926 " fill="none" stroke-width="1" stroke="rgb(232,26,75)" />
	<polyline points="34.4858,33.401 34.7241,35.1851 34.9041,36.5732 35.3261,39.9467 35.7003,43.0236 35.9346,45.0093 36.4091,49.0816 36.6944,51.4637 36.933,53.3475 37.1193,54.7342 37.2323,55.5402 " fill="none" stroke-width="1" stroke="rgb(232,26,75)" />
	<polyline points="73.5522,53.2095 74.5839,48.025 74.944,46.1603 75.3215,44.0952 75.8698,40.9429 76.3622,37.984 76.7194,35.7128 77.0248,33.6364 77.2563,31.9531 77.4816,30.2376 " fill="none" stroke-width="1" stroke="rgb(232,26,75)" />
	<polyline points="35.8813,44.1725 38.8215,43.8672 42.6999,43.4612 44.6885,43.2501 46.0804,43.1009 47.9695,42.8999 53.0417,42.3708 56.257,42.0485 57.9175,41.898 59.7115,41.7591 64.5995,41.4262 66.0961,41.3425 67.6936,41.2838 68.8914,41.2677 70.0888,41.2847 72.1849,41.3583 74.0811,41.4486 75.7952,41.543 " fill="none" stroke-width="1" stroke="rgb(232,26,75)" />
	<polyline points="37.2323,55.5402 41.2707,55.1658 44.6566,54.8614 47.1474,54.6537 54.5246,54.0845 58.8171,53.7789 65.0987,53.3736 67.2156,53.2575 68.7923,53.1958 69.9906,53.1717 71.1893,53.1701 72.3884,53.1855 73.5522,53.2095 " fill="none" stroke-width="1" stroke="rgb(232,26,75)" />
	<polyline points="54.9194,53.9453 55.1836,56.9187 55.3259,58.7154 55.4928,61.3031 55.5763,63.0986 55.6275,65.0964 55.7039,70.9951 55.7272,74.7946 55.718,77.194 55.6811,79.3927 55.6193,81.2902 55.5313,82.9856 55.4311,84.3124 55.2781,85.8689 55.1399,87.0592 54.9864,88.2628 " fill="none" stroke-width="1" stroke="rgb(232,26,75)" />
	<polyline points="72.0214,64.1382 72.2534,64.1898 72.5067,64.2553 72.652,64.3088 72.8622,64.4207 74.5714,65.4949 75.3536,66.0286 75.8997,66.4555 77.0991,67.4985 78.4295,68.7177 80.3864,70.5755 81.2395,71.4173 82.2811,72.4949 83.2966,73.5969 84.4101,74.8785 86.176,77.0452 88.7698,80.4271 89.2065,81.1223 89.2272,81.2793 89.064,81.8252 88.8347,82.4207 88.831,82.4705 88.9573,82.9823 " fill="none" stroke-width="1" stroke="rgb(232,26,75)" />
	<polyline points="15.037,84.9789 16.8514,83.7351 19.6759,81.7823 21.4673,80.5184 22.3517,79.865 23.6139,78.8824 24.516,78.1456 25.5012,77.2996 26.9766,75.9835 28.3165,74.7514 29.6969,73.4477 30.9548,72.2436 31.9427,71.3137 33.2102,70.1876 35.2631,68.5068 36.3654,67.7182 37.0039,67.3525 37.1755,67.2931 37.4551,67.2429 37.4906,67.233 37.6868,67.1479 37.8966,67.0498 " fill="none" stroke-width="1" stroke="rgb(232,26,75)" />
	<polyline points="44.0479,83.1248 44.0605,83.3581 44.0658,83.3981 44.0863,83.4814 44.12,83.587 44.2006,83.7919 44.2318,83.8364 44.5895,84.1428 45.1676,84.543 45.7569,84.8439 49.0842,86.1849 51.0486,86.9167 53.1241,87.638 54.9864,88.2628 " fill="none" stroke-width="1" stroke="rgb(232,26,75)" />
</svg>
