<?xml version="1.0" standalone="no" ?>
<!DOCTYPE svg PUBLIC "-//W3C//DTD SVG 1.1//EN" "http://www.w3.org/Graphics/SVG/1.1/DTD/svg11.dtd">
<svg width="100px" height="100px" xmlns="http://www.w3.org/2000/svg" version="1.1" >
	<image style="overflow: visible; opacity: 0.4" width="100" height="100" xlink:href="../sample_inputs/d.png" transform="matrix(1 0 -0.5 0 1 0 )" />
	<polyline points="76.8291,4.00884 " fill="none" stroke-width="1" stroke="rgb(232,26,75)" />
	<polyline points="75.1967,14.7838 75.0574,16.277 74.9095,17.6662 74.8453,18.0529 74.7425,18.429 74.2829,19.7414 74.0207,20.3788 73.7533,20.9045 73.3909,21.4937 72.6522,22.5557 71.815,23.6712 70.8808,24.8386 70.4868,25.2855 69.8582,25.9244 68.9154,26.8148 67.504,28.0827 65.7682,29.5886 63.6095,31.4187 63.4457,31.5472 63.0107,31.861 " fill="none" stroke-width="1" stroke="rgb(232,26,75)" />
	<polyline points="76.1553,35.9791 75.7215,35.4437 75.2979,34.9072 75.29,34.8824 75.4494,30.949 75.7161,25.2568 75.8358,23.2642 75.8951,22.6908 76.0203,21.8884 76.1505,21.2026 76.352,20.2236 76.4624,19.6605 76.6707,18.4567 76.7284,17.9667 76.8564,15.8767 77.0482,10.9881 77.0627,8.90371 76.9655,5.33098 76.9214,4.74536 76.8291,4.00884 " fill="none" stroke-width="1" stroke="rgb(232,26,75)" />
	<polyline points="40.908,12.9602 41.2884,12.1341 41.7892,11.044 42.2867,9.96273 42.7562,8.95769 43.2367,7.96922 43.7868,6.90763 44.3701,5.86621 44.4587,5.75233 44.4985,5.7361 45.0057,5.73933 45.0288,5.73873 45.2223,5.72728 45.2713,5.7318 46.5929,6.03802 46.7439,6.06254 46.869,6.06755 46.932,6.06447 " fill="none" stroke-width="1" stroke="rgb(232,26,75)" />
	<polyline points="23.4919,5.00007 23.4948,5.01772 23.5291,5.29191 23.6932,6.95197 23.8474,9.03375 23.9287,10.9269 23.9881,14.0245 24.0107,16.7239 24.0136,17.9233 24.0123,18.9227 24.0084,19.922 24.0002,21.0207 23.9881,21.9191 23.9795,22.2174 23.949,22.9153 23.9015,23.9124 23.8548,24.91 23.8067,26.0079 23.716,28.2057 23.6411,30.1041 23.4627,34.7995 23.3925,36.6966 23.3339,38.2944 23.2991,39.1919 23.2662,39.9907 " fill="none" stroke-width="1" stroke="rgb(232,26,75)" />
	<polyline points="40.908,12.9602 41.662,13.1067 42.8401,13.3233 43.5287,13.4324 44.5176,13.5562 44.9115,13.5837 45.2053,13.5757 46.9904,13.4044 48.0741,13.2648 49.7465,12.9918 52.2049,12.5478 54.9576,12.04 56.3338,11.7991 57.7284,11.5784 60.1571,11.2179 60.3129,11.1916 60.8898,11.08 60.9726,11.0632 " fill="none" stroke-width="1" stroke="rgb(232,26,75)" />
	<polyline points="35.0179,22.894 35.0349,22.889 35.1074,22.8739 35.3405,22.8407 39.0093,22.4105 40.4983,22.2336 41.3901,22.1199 43.5694,21.8222 45.1435,21.5989 48.122,21.1666 52.8718,20.4753 55.5709,20.0887 57.9216,19.766 59.2106,19.6062 60.3028,19.492 62.6805,19.2702 63.219,19.2124 63.4401,19.1738 63.7171,19.0989 63.9014,19.0337 63.9712,19.0038 " fill="none" stroke-width="1" stroke="rgb(232,26,75)" />
	<polyline points="64.0336,15.8135 64.8588,15.809 65.1399,15.8026 66.6674,15.7381 67.7631,15.6768 68.3593,15.6278 69.6513,15.4918 71.2408,15.3119 72.9294,15.1194 74.0226,15.0005 74.9175,14.9123 75.3151,14.8803 76.5118,14.7994 78.207,14.6814 79.8989,14.5475 81.9874,14.3553 84.1745,14.1254 85.9608,13.9107 88.7266,13.5385 88.7588,13.5186 88.7949,13.4328 88.9994,12.4631 " fill="none" stroke-width="1" stroke="rgb(232,26,75)" />
	<polyline points="9.06374,18.9447 9.08117,18.9414 9.19302,18.9244 9.83047,18.8422 10.1404,18.809 12.2562,18.6145 14.1428,18.4281 15.5314,18.2681 16.9177,18.0819 17.8068,17.947 19.1885,17.7226 20.9646,17.4334 21.9523,17.281 23.0399,17.1272 24.6237,16.9149 26.01,16.7252 27.7878,16.459 30.2472,16.0438 32.101,15.6852 33.699,15.3369 33.8279,15.3007 33.8361,15.2933 33.9528,15.0241 " fill="none" stroke-width="1" stroke="rgb(232,26,75)" />
	<polyline points="76.7379,18.2533 77.9256,18.4158 78.579,18.5186 78.9005,18.5882 79.3749,18.7258 79.552,18.7973 79.7158,18.893 79.95,19.0688 80.2495,19.329 82.2539,21.1743 84.5198,23.2495 86.308,24.8458 87.9022,26.2061 89.4555,27.4572 90.4932,28.2291 92.1365,29.3582 94.204,30.7048 94.3998,30.7978 95.6647,31.1709 96.0424,31.2083 96.6064,31.1293 97.5303,30.9113 97.7075,30.883 97.9709,30.8712 " fill="none" stroke-width="1" stroke="rgb(232,26,75)" />
	<polyline points="6.05146,36.7209 6.07422,36.6382 6.11736,36.4861 6.14669,36.3974 6.22782,36.2041 6.2842,36.1181 6.4713,35.9318 7.32653,35.2084 8.33262,34.3971 8.55983,34.2231 9.471,33.5532 10.1009,33.0917 10.6634,32.676 11.7927,31.8269 12.9695,30.9217 13.8293,30.2383 14.4459,29.7315 14.9854,29.2877 16.7132,27.9361 18.6383,26.5949 20.174,25.7438 24.8027,23.6566 25.6922,23.3321 25.9453,23.2969 26.2192,23.3345 26.6866,23.4819 27.0482,23.6364 27.3961,23.8222 27.9032,24.1354 28.2288,24.362 28.6239,24.6699 29.0002,24.9897 29.2937,25.2586 31.9072,27.7319 33.44,29.1437 33.852,29.4817 34.0767,29.6282 34.2513,29.7165 34.4572,29.8052 34.9137,29.9938 " fill="none" stroke-width="1" stroke="rgb(232,26,75)" />
	<polyline points="48.3106,13.3801 48.4854,14.6528 48.6412,15.842 48.7209,16.5362 48.9366,18.7244 49.1586,21.2134 49.2649,22.6082 49.3576,24.1044 49.608,28.5969 49.6975,30.0932 49.7872,31.3886 49.9288,33.255 " fill="none" stroke-width="1" stroke="rgb(232,26,75)" />
	<polyline points="57.4875,25.9999 58.0464,25.839 60.7529,25.0656 60.7531,25.0658 60.6252,27.4028 60.5026,29.4981 60.2985,32.8005 " fill="none" stroke-width="1" stroke="rgb(232,26,75)" />
	<polyline points="37.4571,26.0019 37.5005,26.0143 37.9251,26.165 37.998,26.2247 38.2172,26.6423 38.5841,27.6796 39.19,29.9554 39.9207,33.1679 40.1004,34.0492 40.2536,34.8641 " fill="none" stroke-width="1" stroke="rgb(232,26,75)" />
	<polyline points="40.2536,34.8641 41.1076,34.7359 43.2805,34.4016 44.9575,34.1346 47.1283,33.781 48.7078,33.5294 50.9805,33.1905 51.9689,33.0685 54.3546,32.8408 55.6479,32.7478 56.2436,32.732 58.04,32.7525 60.2985,32.8005 " fill="none" stroke-width="1" stroke="rgb(232,26,75)" />
	<polyline points="11.6777,44.8741 12.7167,44.9221 13.6098,44.9436 14.3024,44.9293 15.8954,44.8317 18.2862,44.6389 21.1738,44.3753 27.1462,43.8039 36.2041,42.9362 46.3719,41.9763 49.2465,41.7184 51.6382,41.5232 56.8365,41.1314 60.2146,40.8923 64.0061,40.6434 67.7988,40.4124 76.9832,39.8814 78.6805,39.7897 81.377,39.6563 85.0122,39.4851 85.157,39.481 86.1998,39.4769 87.1967,39.4895 88.0933,39.5251 88.9881,39.5907 89.5799,39.661 90.0666,39.7498 90.6463,39.8948 91.1485,40.0563 91.4723,40.194 92.7144,40.826 93.1431,41.0721 93.5777,41.3642 94.1083,41.7672 94.7219,42.2748 95.3364,42.8127 95.885,43.3079 " fill="none" stroke-width="1" stroke="rgb(232,26,75)" />
	<polyline points="81.0441,49.9992 81.2947,49.8268 81.595,49.6267 81.7766,49.5156 84.436,48.0025 85.2986,47.5382 86.5483,46.9189 87.2729,46.5928 88.1965,46.218 89.186,45.8418 91.0047,45.1666 92.9688,44.4309 94.7399,43.7536 95.885,43.3079 " fill="none" stroke-width="1" stroke="rgb(232,26,75)" />
	<polyline points="6.0862,57.9867 6.28239,57.3718 6.33533,57.2175 6.3776,57.1131 6.73709,56.3165 7.00517,55.734 7.8015,54.0102 8.83422,51.7353 9.6504,49.8716 10.4845,47.8788 11.1547,46.211 11.6777,44.8741 " fill="none" stroke-width="1" stroke="rgb(232,26,75)" />
	<polyline points="29.0431,47.1112 29.2962,47.144 29.5979,47.1825 29.6103,47.1844 30.2089,47.3009 30.6174,47.4331 31.1208,47.7017 33.8647,49.5142 35.229,50.442 35.3985,50.5547 35.945,50.9046 " fill="none" stroke-width="1" stroke="rgb(232,26,75)" />
	<polyline points="23.0213,64.9156 23.3633,64.7249 23.5347,64.6241 26.5019,62.7885 28.0955,61.7637 29.1553,61.0248 30.5011,59.9994 31.7327,58.9882 33.3898,57.5472 33.9737,57.0044 34.5339,56.4363 35.8949,54.973 36.7563,54.0019 37.6465,52.9256 38.4193,51.8893 39.0405,50.9071 39.518,49.9454 40.5008,47.5131 40.806,46.6245 40.9539,46.1071 " fill="none" stroke-width="1" stroke="rgb(232,26,75)" />
	<polyline points="50.3893,67.9985 50.6101,65.265 50.7537,63.2712 51.2387,55.2883 51.3075,53.0958 51.2774,48.7506 51.2049,47.5536 51.0884,46.6584 51.0098,46.1818 51.0005,46.096 50.9995,46.0236 " fill="none" stroke-width="1" stroke="rgb(232,26,75)" />
	<polyline points="57.012,61.6815 57.1182,61.5636 57.1683,61.5021 57.1809,61.4799 57.2667,61.2825 57.2875,61.2579 57.4343,61.1729 58.7411,60.5311 59.6414,60.0979 61.1691,59.3562 62.5896,58.6319 64.7769,57.4415 66.7573,56.2907 69.309,54.7232 70.8643,53.7319 72.1692,52.891 73.2721,52.2081 74.8455,51.3028 77.0496,50.1102 77.647,49.8039 77.6509,49.8042 78.1204,50.1106 78.1712,50.1246 78.4442,50.102 78.8959,50.0343 " fill="none" stroke-width="1" stroke="rgb(232,26,75)" />
	<polyline points="16.5011,50 16.5029,50.0127 16.5269,50.2515 16.6304,51.643 16.7604,54.029 17.0643,61.0206 17.1623,63.1171 17.2928,65.3105 17.4213,66.9009 17.5526,68.0888 17.7045,69.1743 17.8917,70.3631 " fill="none" stroke-width="1" stroke="rgb(232,26,75)" />
	<polyline points="25.0191,51.1647 25.5541,51.3841 25.7631,51.4663 28.0688,52.3467 29.5489,52.9294 30.5561,53.358 31.2699,53.7023 32.7637,54.502 33.5371,54.9533 34.2908,55.4385 35.7757,56.4528 37.8996,57.9288 42.0122,60.7802 43.1367,61.5341 43.4739,61.7356 43.969,61.9988 " fill="none" stroke-width="1" stroke="rgb(232,26,75)" />
	<polyline points="41.0087,54.1557 41.4331,54.2678 41.6765,54.3411 41.8203,54.4026 42.0109,54.524 43.5725,55.7381 46.0399,57.7525 46.4799,58.1501 46.5595,58.2514 46.655,58.4319 46.7404,58.621 46.8228,58.8087 46.8897,58.9584 " fill="none" stroke-width="1" stroke="rgb(232,26,75)" />
	<polyline points="22.0203,55.0574 24.9578,56.3257 27.7118,57.508 28.1552,57.6922 28.2712,57.7344 28.9083,57.9392 " fill="none" stroke-width="1" stroke="rgb(232,26,75)" />
	<polyline points="56.0191,76.903 56.0547,76.8832 56.1505,76.8388 56.4375,76.7281 58.6938,75.9291 61.0524,75.1018 62.6524,74.532 63.2095,74.3168 64.5885,73.7337 65.1622,73.4671 67.0922,72.4914 68.5033,71.7423 69.8076,71.0069 71.957,69.7348 73.6606,68.691 75.0997,67.7889 77.1217,66.5374 78.6965,65.6405 81.0373,64.4808 81.8598,64.1926 82.6679,64.0458 83.0468,64.0222 83.4059,64.0236 83.898,64.0316 " fill="none" stroke-width="1" stroke="rgb(232,26,75)" />
	<polyline points="30.2639,60.4102 31.3248,61.0785 32.6008,61.8625 33.3765,62.3105 34.0804,62.6789 35.0683,63.1518 35.9765,63.564 36.4722,63.7834 37.6473,64.3054 37.7569,64.3635 37.7685,64.379 37.8459,64.6695 37.849,64.6817 37.9301,64.9939 " fill="none" stroke-width="1" stroke="rgb(232,26,75)" />
	<polyline points="17.8917,70.3631 19.3017,70.2923 20.5976,70.2141 21.3923,70.1472 23.9765,69.876 31.9282,69.0031 33.5189,68.8345 35.4094,68.6508 39.7913,68.2581 41.4853,68.1268 43.5797,68.0022 46.0739,67.8968 47.7675,67.861 48.3607,67.8752 50.3893,67.9985 " fill="none" stroke-width="1" stroke="rgb(232,26,75)" />
	<polyline points="20.4349,82.8243 22.4965,82.9374 22.8924,82.9432 23.386,82.9153 24.771,82.7677 25.4707,82.6579 26.8167,82.3743 27.8795,82.1077 29.0285,81.7727 30.1662,81.3995 31.1026,81.0559 33.1075,80.2563 34.8927,79.5047 37.178,78.4971 39.4177,77.4806 42.179,76.2138 43.6587,75.5441 44.1492,75.3358 44.4298,75.2311 44.9618,75.0521 " fill="none" stroke-width="1" stroke="rgb(232,26,75)" />
	<polyline points="17.2621,74.0116 17.4369,74.0298 17.482,74.0379 17.81,74.1338 17.9144,74.1905 18.3397,74.5629 18.8796,75.109 18.9702,75.2314 19.357,75.9123 19.4471,76.0661 19.5218,76.1892 19.5358,76.2235 19.5626,76.3669 20.1771,81.0217 20.7367,85.3026 20.9089,86.5718 21.0407,87.4607 21.4137,89.8295 " fill="none" stroke-width="1" stroke="rgb(232,26,75)" />
	<polyline points="54.075,95.8881 54.1181,95.8697 54.2884,95.8034 56.8576,94.8449 59.0088,94.0366 60.964,93.2828 62.6296,92.6111 63.1735,92.3658 64.6897,91.6025 66.0101,90.8956 67.9213,89.8115 70.1528,88.4839 72.013,87.3168 74.0922,85.9367 75.8904,84.6772 78.231,82.9715 80.0815,81.6098 82.3367,79.9941 84.6564,78.4411 86.7837,77.153 87.4102,76.8531 87.5661,76.8354 88.5618,77.0059 88.9321,77.0837 " fill="none" stroke-width="1" stroke="rgb(232,26,75)" />
	<polyline points="47.134,81.0246 48.3112,82.761 48.7208,83.3976 49.6165,84.8797 50.435,86.2669 " fill="none" stroke-width="1" stroke="rgb(232,26,75)" />
	<polyline points="21.4137,89.8295 22.6484,90.0722 24.8089,90.4805 25.5949,90.6079 26.88,90.7695 28.3687,90.9163 29.3636,90.9845 30.3666,91.0199 31.4592,91.0272 32.5576,91.0074 33.6553,90.962 34.7517,90.8919 35.8461,90.7974 36.8386,90.6883 37.7288,90.5671 38.7145,90.4067 40.3853,90.1 41.3631,89.8984 42.3338,89.6684 43.0052,89.4819 44.7194,88.9445 45.28,88.7431 46.1058,88.3964 47.1931,87.8933 48.5031,87.2479 50.435,86.2669 " fill="none" stroke-width="1" stroke="rgb(232,26,75)" />
</svg>
