<?xml version="1.0" standalone="no" ?>
<!DOCTYPE svg PUBLIC "-//W3C//DTD SVG 1.1//EN" "http://www.w3.org/Graphics/SVG/1.1/DTD/svg11.dtd">
<svg width="100px" height="100px" xmlns="http://www.w3.org/2000/svg" version="1.1" >
	<image style="overflow: visible; opacity: 0.4" width="100" height="100" xlink:href="../sample_inputs/e.png" transform="matrix(1 0 -0.5 0 1 0 )" />
	<polyline points="59.4962,6.00002 60.1357,6.8165 60.4056,7.31818 60.5708,8.033 61.0753,13.7128 61.202,15.8069 61.2868,18.1045 61.3686,21.1029 61.4139,22.9017 61.4476,24.2011 61.489,25.7004 61.6532,31.4978 61.7122,33.5968 61.7868,36.2955 61.8917,40.0936 61.9798,43.1921 62.2121,50.9879 62.2847,53.1858 62.3707,55.5322 " fill="none" stroke-width="1" stroke="rgb(232,26,75)" />
	<polyline points="60.9481,7.39511 62.0051,7.64655 62.9752,7.88439 64.8158,8.34995 65.9775,8.64831 " fill="none" stroke-width="1" stroke="rgb(232,26,75)" />
	<polyline points="26.4705,90.8965 26.8704,89.8352 27.1645,88.9918 27.6363,87.4729 27.8031,86.8039 28.055,85.436 28.155,84.6492 28.2735,83.0593 28.3459,81.3652 28.3835,79.1681 28.3951,74.0587 28.3569,62.2693 28.3316,59.5699 28.2866,57.1711 28.2234,54.8243 28.1076,51.1747 28.061,49.7756 27.9018,45.0789 27.6185,36.7844 27.5581,35.0858 27.4916,33.2872 27.3361,28.9129 27.2808,26.8928 27.2537,24.7948 27.2583,22.3962 27.2949,20.0975 27.4459,14.006 27.4572,13.8802 27.8788,11.0604 27.9389,10.4965 27.9231,10.4679 26.6767,9.7968 26.4863,9.68888 26.2916,9.56857 26.0083,9.39568 25.2368,8.95635 23.486,8.00021 " fill="none" stroke-width="1" stroke="rgb(232,26,75)" />
	<polyline points="67.4925,10.0001 66.8126,9.04095 66.7885,9.00666 " fill="none" stroke-width="1" stroke="rgb(232,26,75)" />
	<polyline points="31.4978,12 30.7893,11.0425 30.767,11.0122 " fill="none" stroke-width="1" stroke="rgb(232,26,75)" />
	<polyline points="43.1764,22.7363 44.8153,22.7073 45.514,22.7066 47.0033,22.734 48.2106,22.7631 48.8985,22.7712 50.1794,22.7527 51.7593,22.6853 53.1526,22.586 55.1439,22.4073 57.3338,22.2059 60.9179,21.8975 62.9094,21.7509 67.8986,21.4366 69.795,21.3245 71.9914,21.2011 75.4862,21.0155 77.1836,20.9403 78.2813,20.9139 80.0776,20.9115 80.6724,20.9341 81.665,21.0189 82.4561,21.1153 83.244,21.239 84.128,21.4005 85.0609,21.5827 " fill="none" stroke-width="1" stroke="rgb(232,26,75)" />
	<polyline points="43.1764,22.7363 44.2065,32.062 44.7586,37.042 45.4003,42.7954 45.6462,44.9812 45.7374,45.7821 " fill="none" stroke-width="1" stroke="rgb(232,26,75)" />
	<polyline points="81.0448,43.2026 81.7296,40.0354 82.0804,38.3727 82.5379,36.1192 82.882,34.3528 83.1543,32.878 83.71,29.7269 84.2489,26.5733 84.6232,24.3048 85.0609,21.5827 " fill="none" stroke-width="1" stroke="rgb(232,26,75)" />
	<polyline points="7.01068,33.9949 7.63354,34.0518 8.51253,34.0838 9.60249,34.0299 10.7896,33.8522 16.0175,32.7495 20.2138,31.814 22.3177,31.3437 24.4848,30.8774 25.2931,30.7218 26.574,30.5084 29.0434,30.122 32.4994,29.574 35.0563,29.1381 36.027,28.9459 36.0359,28.9342 35.977,28.0693 " fill="none" stroke-width="1" stroke="rgb(232,26,75)" />
	<polyline points="44.4765,34.3448 48.7145,33.89 50.2061,33.7322 55.975,33.1354 60.0538,32.7272 61.945,32.5546 67.1269,32.1285 72.7099,31.6998 74.6043,31.5789 75.4007,31.5573 76.9955,31.5803 78.9861,31.6629 80.9754,31.7898 83.3443,31.9723 " fill="none" stroke-width="1" stroke="rgb(232,26,75)" />
	<polyline points="45.7374,45.7821 50.0905,45.3135 51.7808,45.1334 53.1733,44.9896 55.2628,44.7841 61.1365,44.2326 65.8173,43.8168 68.8066,43.5783 73.2944,43.2625 74.7907,43.178 75.9884,43.1372 77.3868,43.1197 78.4851,43.1278 79.6836,43.1571 81.0448,43.2026 " fill="none" stroke-width="1" stroke="rgb(232,26,75)" />
	<polyline points="6.0419,61.9053 6.05139,61.8858 6.10602,61.7732 6.17838,61.6264 6.22655,61.5361 6.23709,61.5246 6.36425,61.4416 10.8652,58.6752 13.0806,57.3152 15.2102,56.0069 16.999,54.9075 20.7506,52.6099 22.8038,51.371 24.6121,50.3086 25.0485,50.0709 26.6525,49.2574 28.3464,48.3992 29.0977,48.0002 29.7372,47.628 30.235,47.3032 30.8807,46.8369 32.5531,45.5689 33.504,44.8372 35.7926,43.0644 36.982,42.1426 " fill="none" stroke-width="1" stroke="rgb(232,26,75)" />
	<polyline points="45.0061,55.6724 45.55,55.971 46.4165,56.4237 47.0619,56.7223 47.196,56.7485 50.0376,56.6863 51.7331,56.6098 53.5269,56.4845 55.5179,56.3086 58.0048,56.0606 59.7944,55.8717 61.283,55.7109 64.8628,55.3242 66.1377,55.1882 66.2973,55.1727 67.6128,55.061 69.2065,54.9449 70.2591,54.8983 70.3983,54.9198 70.5607,55.0048 71.13,55.4569 74.0088,57.9928 74.0197,58.04 73.7766,58.4972 71.4076,62.052 69.33,64.9595 68.162,66.4453 67.2385,67.4903 64.8951,69.9429 62.9938,71.8635 60.9252,73.8935 60.3418,74.4382 59.1443,75.497 58.5431,76.0023 57.3612,76.9456 55.9367,78.0435 54.8129,78.8753 53.4272,79.8565 52.2689,80.639 51.4261,81.1729 49.711,82.1979 47.3584,83.5547 46.5842,83.9724 44.7082,84.9093 43.5345,85.4577 42.8012,85.7647 40.008,86.8489 38.1486,87.5794 35.94,88.485 34.5235,89.0991 34.2157,89.2457 34.2082,89.254 34.1763,89.3509 34.1095,89.5941 34.1045,89.62 34.0691,89.9096 34.0656,89.9388 " fill="none" stroke-width="1" stroke="rgb(232,26,75)" />
	<polyline points="74.6151,52.0353 75.0505,52.2806 75.7424,52.68 76.165,52.9388 76.7483,53.3247 77.6471,53.9557 78.8558,54.8413 79.7289,55.5072 80.4319,56.0666 81.5161,56.9516 " fill="none" stroke-width="1" stroke="rgb(232,26,75)" />
	<polyline points="47.0257,63.1159 47.4573,63.1928 47.8317,63.2643 48.5357,63.4081 49.1894,63.5456 49.3851,63.5877 49.5509,63.6253 49.6748,63.6574 50.4109,63.8676 50.5396,63.9085 51.1265,64.1178 51.2181,64.16 51.692,64.4385 52.3613,64.8666 53.6484,65.7432 54.8175,66.5763 56.5881,67.8798 57.9765,68.9176 58.1284,69.0337 59.1887,69.8601 61.0583,71.3229 61.2135,71.4466 63.423,73.2346 65.5269,74.9255 67.1713,76.228 69.1109,77.7416 69.2729,77.861 71.2754,79.2528 73.8541,81.0213 75.9884,82.4544 77.8313,83.6511 80.1181,85.0803 81.2841,85.7686 82.1987,86.2605 83.7206,87.0087 84.9072,87.5466 86.0953,88.0398 87.28,88.4977 87.4993,88.571 89.1157,89.0371 90.8966,89.5275 92.5406,89.9506 93.5107,90.1672 94.1977,90.2806 94.6885,90.3216 94.8453,90.3064 95.5496,90.1251 96.1852,89.9415 96.4451,89.8641 96.7066,89.7892 97.0442,89.704 97.1737,89.6851 97.3053,89.689 97.6658,89.7416 97.9357,89.7913 " fill="none" stroke-width="1" stroke="rgb(232,26,75)" />
	<polyline points="15.1212,80.0347 15.9507,80.9001 16.8582,81.8271 19.3229,84.2871 21.8325,86.7474 22.7753,87.6394 23.9598,88.7124 25.0861,89.7014 26.4705,90.8965 " fill="none" stroke-width="1" stroke="rgb(232,26,75)" />
</svg>
