<?xml version="1.0" standalone="no" ?>
<!DOCTYPE svg PUBLIC "-//W3C//DTD SVG 1.1//EN" "http://www.w3.org/Graphics/SVG/1.1/DTD/svg11.dtd">
<svg width="100px" height="100px" xmlns="http://www.w3.org/2000/svg" version="1.1" >
	<image style="overflow: visible; opacity: 0.4" width="100" height="100" xlink:href="../sample_inputs/f.png" transform="matrix(1 0 -0.5 0 1 0 )" />
	<polyline points="25.9076,7.05972 26.074,7.42133 26.9388,9.3764 26.9653,9.51739 26.9293,9.60583 25.7058,10.9651 24.1212,12.6235 23.5488,13.178 22.4177,14.1939 21.8257,14.6963 21.1366,15.2452 20.0881,16.0406 19.4401,16.5059 18.7035,16.9997 17.9337,17.4823 17.3308,17.8317 16.891,18.0601 16.6197,18.1774 16.2456,18.3059 15.9601,18.3797 15.6133,18.4397 14.1855,18.6235 12.3283,18.8455 " fill="none" stroke-width="1" stroke="rgb(232,26,75)" />
	<polyline points="33.9843,37.6223 33.4712,38.2275 32.6195,39.2077 31.6812,40.2415 30.2346,41.7562 29.057,42.918 27.4906,44.3684 25.4694,46.1525 23.6424,47.7042 22.7875,48.393 21.8316,49.1155 20.8725,49.7981 19.0351,51.0433 16.7848,52.5145 14.1599,54.1735 12.1981,55.3676 10.9876,56.0659 9.84588,56.6833 9.08027,57.0663 7.59403,57.76 5.67766,58.6231 5.4176,58.7315 5.06911,58.8641 " fill="none" stroke-width="1" stroke="rgb(232,26,75)" />
	<polyline points="44.9814,50.0699 44.8911,50.0789 44.2808,50.1319 41.1953,50.3872 40.3996,50.4589 39.8049,50.5237 38.1191,50.7328 36.2351,50.9738 35.3427,51.0871 28.0006,52.0065 26.215,52.2264 25.5205,52.2974 24.3358,52.3608 23.8426,52.317 23.7144,52.2313 23.1399,51.2692 23.1348,51.112 23.4476,50.5978 24.335,49.5839 25.0892,48.8563 26.3993,47.7045 28.0613,46.2661 29.9388,44.6189 30.9743,43.6798 31.6959,42.9901 32.4684,42.2093 33.1521,41.4818 33.6823,40.8854 34.1962,40.2748 35.4434,38.7486 " fill="none" stroke-width="1" stroke="rgb(232,26,75)" />
	<polyline points="82.5143,9.15369 82.5512,10.099 82.6421,12.4969 82.7473,15.3946 82.7865,16.5935 82.8821,19.8916 83.1011,27.8617 83.112,28.4687 83.1824,37.2014 83.2499,49.3995 83.2665,58.7991 83.2346,75.5982 83.2047,78.3958 83.163,79.5912 83.1086,80.2844 82.998,81.1737 82.8477,82.1276 82.6796,83.0433 82.2621,85.1627 " fill="none" stroke-width="1" stroke="rgb(232,26,75)" />
	<polyline points="82.5143,9.15369 83.4771,9.40742 84.6067,9.71437 86.7231,10.3071 87.9728,10.6627 " fill="none" stroke-width="1" stroke="rgb(232,26,75)" />
	<polyline points="43.3401,13.9079 48.3016,13.43 50.09,13.289 51.876,13.2051 52.4618,13.217 53.6476,13.3261 54.0366,13.3894 55.3018,13.6724 56.2356,13.8948 " fill="none" stroke-width="1" stroke="rgb(232,26,75)" />
	<polyline points="50.6132,34.294 50.8826,33.6929 51.3948,32.5011 51.7188,31.6682 52.3074,29.953 52.9493,27.8795 53.4879,25.9265 54.0255,23.7273 55.3087,18.0725 56.2356,13.8948 " fill="none" stroke-width="1" stroke="rgb(232,26,75)" />
	<polyline points="11.9846,17.5676 12.5304,19.9643 12.8595,21.4673 13.1188,22.7391 13.731,25.8794 14.1595,28.0363 14.5156,29.695 14.6704,30.2739 15.104,31.5896 15.421,32.4225 16.0086,33.7966 16.4636,34.7962 16.7906,35.4875 " fill="none" stroke-width="1" stroke="rgb(232,26,75)" />
	<polyline points="64.435,17.9985 65.1595,16.6316 65.3548,16.2675 65.3548,16.2675 65.5116,17.6975 65.592,18.2901 65.8397,19.7481 66.0178,20.6258 66.1784,21.2961 66.73,23.5286 66.8528,24.2408 67.0898,26.9281 67.3071,30.8054 67.3696,33.2003 67.381,37.6989 67.3354,46.8986 67.3152,51.3979 67.3211,52.9967 67.3482,54.6954 67.3722,55.4605 67.4436,57.0924 67.4866,57.9911 " fill="none" stroke-width="1" stroke="rgb(232,26,75)" />
	<polyline points="43.3401,13.9079 43.2744,15.1922 43.1964,16.2851 43.0779,17.3706 42.9339,18.2481 42.7141,19.2135 42.2873,20.748 42.0353,21.5008 41.4541,22.9858 40.7553,24.624 40.365,25.4455 39.622,26.8577 38.9831,27.9851 38.3596,29.0059 37.2781,30.6862 35.9257,32.7388 35.1272,33.9383 " fill="none" stroke-width="1" stroke="rgb(232,26,75)" />
	<polyline points="23.1246,21.0617 23.2439,21.5195 23.3661,21.8886 23.6307,22.4981 24.346,23.8983 24.7495,24.5731 25.4329,25.5486 25.9279,26.1693 27.2433,27.67 28.7214,29.2955 29.3357,29.9513 30.2296,30.894 30.7681,31.4806 31.2453,32.0384 31.4027,32.2517 31.4729,32.3759 31.5084,32.4633 31.5105,32.4802 31.484,32.783 31.4751,32.8455 31.436,33.0427 31.4057,33.1848 31.3094,33.6555 31.3117,33.6943 31.3737,33.8541 31.5616,34.2525 31.6315,34.392 31.7248,34.577 31.764,34.6648 31.8112,34.7952 31.8756,35.0024 31.9284,35.1768 31.9913,35.3496 32.0548,35.461 32.2702,35.7137 33.4918,36.9438 36.1368,39.534 36.2629,39.6691 36.3129,39.7364 36.4028,39.8721 36.51,40.0092 36.9317,40.4525 37.2929,40.7774 37.6872,41.0735 38.122,41.3521 41.0335,43.0799 42.1445,43.7424 44.3879,45.1049 46.487,46.4124 47.9948,47.3915 49.7367,48.5791 54.9171,52.214 55.019,52.3027 55.0423,52.346 55.0687,52.5036 55.07,52.6203 54.9988,53.522 54.9789,53.7493 " fill="none" stroke-width="1" stroke="rgb(232,26,75)" />
	<polyline points="16.7906,35.4875 18.0276,34.6652 19.1959,33.8957 21.7055,32.2541 26.3824,29.1854 26.7818,28.9035 27.6162,28.2647 " fill="none" stroke-width="1" stroke="rgb(232,26,75)" />
	<polyline points="43.0427,31.2979 43.2022,31.3193 43.5251,31.3828 44.0749,31.533 45.677,32.0546 46.909,32.4937 47.2576,32.6411 48.6181,33.3004 50.6132,34.294 " fill="none" stroke-width="1" stroke="rgb(232,26,75)" />
	<polyline points="12.0017,65.9826 12.1868,65.9374 12.7712,65.8058 12.9929,65.7679 14.1746,65.6229 16.1601,65.3941 23.0159,64.6167 27.4877,64.1174 30.9672,63.7437 36.9356,63.1325 44.8962,62.3485 46.7866,62.1776 48.3795,62.0483 50.1722,61.8996 52.0523,61.7095 52.8577,61.5813 53.1364,61.4885 53.6987,61.1974 53.9737,61.0344 " fill="none" stroke-width="1" stroke="rgb(232,26,75)" />
	<polyline points="31.7476,51.5445 31.9448,54.7142 32.024,56.1564 32.123,58.4081 32.2519,62.0054 32.3932,66.7026 32.4569,69.3009 32.5985,75.8989 32.6388,77.2975 32.7053,78.7945 32.8087,80.4893 32.8769,81.2841 33.0591,82.9726 33.1996,84.1865 " fill="none" stroke-width="1" stroke="rgb(232,26,75)" />
	<polyline points="39.1073,78.9536 39.1946,78.9203 39.3567,78.8534 39.4865,78.7885 39.749,78.6235 39.8923,78.5003 40.9972,77.2991 41.2436,76.9895 42.8503,74.7021 43.897,73.2404 45.2852,71.4221 46.8198,69.5866 46.971,69.5022 47.8969,69.3757 48.0359,69.3569 48.1495,69.3285 48.3985,69.235 48.6221,69.1358 48.7563,69.0707 " fill="none" stroke-width="1" stroke="rgb(232,26,75)" />
	<polyline points="18.1083,71.0455 18.5524,71.6385 18.6497,71.7617 20.3516,73.8012 21.8799,75.5829 23.9373,77.8914 25.3703,79.4279 25.6304,79.67 25.8168,79.8087 25.8992,79.8572 25.9716,79.8927 " fill="none" stroke-width="1" stroke="rgb(232,26,75)" />
	<polyline points="11.0498,85.9917 11.6072,86.276 11.9513,86.4649 13.0838,87.1083 13.7149,87.4275 14.6873,87.8466 15.1906,88.0434 15.4461,88.138 15.6233,88.2003 15.6385,88.2015 15.7972,88.1705 20.3637,87.1375 26.5019,85.7229 31.3675,84.5733 34.9609,83.694 37.866,82.9505 41.6326,81.9451 45.777,80.8032 49.1441,79.8504 51.8332,79.072 54.9996,78.1433 " fill="none" stroke-width="1" stroke="rgb(232,26,75)" />
	<polyline points="72.0603,80.262 72.1157,80.2809 72.2925,80.3551 73.0459,80.7178 75.8932,82.1537 77.0605,82.7505 78.9181,83.7 79.4555,83.9618 80.0015,84.2053 82.2621,85.1627 " fill="none" stroke-width="1" stroke="rgb(232,26,75)" />
</svg>
