<?xml version="1.0" standalone="no" ?>
<!DOCTYPE svg PUBLIC "-//W3C//DTD SVG 1.1//EN" "http://www.w3.org/Graphics/SVG/1.1/DTD/svg11.dtd">
<svg width="100px" height="100px" xmlns="http://www.w3.org/2000/svg" version="1.1" >
	<image style="overflow: visible; opacity: 0.4" width="100" height="100" xlink:href="../sample_inputs/g.png" transform="matrix(1 0 -0.5 0 1 0 )" />
	<polyline points="38.4863,7.00021 39.301,7.47496 39.731,7.79258 40.5013,8.50006 " fill="none" stroke-width="1" stroke="rgb(232,26,75)" />
	<polyline points="43.5026,9.41016 43.4454,13.0994 43.3811,17.9984 43.3721,19.8974 43.3901,21.6959 43.4409,23.6935 43.4906,24.79 43.5534,25.6859 43.7062,27.4845 " fill="none" stroke-width="1" stroke="rgb(232,26,75)" />
	<polyline points="75.9908,39.2394 75.989,39.2494 75.9682,39.3686 75.9405,39.5374 75.9064,39.757 75.8899,39.8709 75.8885,39.8842 75.8704,40.1432 75.8677,40.1484 75.8006,40.1977 75.7089,40.2455 75.6258,40.2663 73.9948,40.424 70.7068,40.7151 68.7159,40.8935 66.7264,41.0858 62.8388,41.493 59.172,41.9059 57.1889,42.1566 53.1307,42.7268 51.7177,42.9489 51.6782,42.9695 51.6184,43.0505 51.5793,43.1434 51.5264,43.3467 51.5262,43.3741 52.373,47.2591 53.0714,49.7942 53.2966,50.0849 53.9894,50.3413 56.18,50.5396 65.106,50.6259 67.0039,50.5962 68.6025,50.5445 69.8006,50.5168 70.8966,50.531 72.683,50.6377 74.1182,50.8052 74.6217,50.9295 75.3024,51.2022 75.9797,51.5247 " fill="none" stroke-width="1" stroke="rgb(232,26,75)" />
	<polyline points="48.2419,57.5267 48.7236,55.9492 48.8747,55.4577 " fill="none" stroke-width="1" stroke="rgb(232,26,75)" />
	<polyline points="49.8655,53.6731 50.9581,53.5464 52.1807,53.409 53.8621,53.2301 58.914,52.7189 62.2981,52.3967 65.0867,52.1583 67.5783,51.9744 69.972,51.8248 71.4692,51.7478 74.8929,51.5945 75.0718,51.5847 75.9717,51.5245 " fill="none" stroke-width="1" stroke="rgb(232,26,75)" />
	<polyline points="48.2419,57.5267 47.6019,57.3071 45.0915,56.6103 40.9617,55.7725 37.7546,55.436 32.9972,55.332 29.9,55.3758 27.9071,55.4012 25.9716,55.3536 25.4714,55.2748 24.6738,55.0205 24.0162,54.7635 " fill="none" stroke-width="1" stroke="rgb(232,26,75)" />
	<polyline points="44.9837,64.9805 46.1004,64.6936 47.4767,64.328 47.5604,64.2952 47.5786,64.2763 47.6303,64.1526 47.6438,64.1055 47.6717,63.9612 47.6936,63.8291 47.7109,63.7068 47.7161,63.6542 47.7371,63.3282 47.7448,63.1888 47.909,60.0076 47.9323,59.717 47.9521,59.5719 47.9662,59.4944 48.1023,58.8136 48.1278,58.687 48.153,58.5545 48.1633,58.4767 48.2262,57.7285 48.2419,57.5267 " fill="none" stroke-width="1" stroke="rgb(232,26,75)" />
	<polyline points="44.9837,64.9805 44.1593,65.0297 43.7377,65.0435 43.2153,65.044 41.8589,65.0402 41.3092,65.064 39.2951,65.2443 38.6,65.3138 37.6737,65.4042 37.519,65.4104 36.8016,65.4061 36.2052,65.4267 33.8074,65.6243 27.0514,66.2991 20.986,66.9384 18.9965,67.1332 17.4042,67.2386 15.917,67.2459 13.4323,67.088 12.9109,66.9655 12.1144,66.6206 12.1,66.6105 11.5125,66.0338 11.1464,65.6877 11.0358,65.5928 11.0049,65.5698 " fill="none" stroke-width="1" stroke="rgb(232,26,75)" />
	<polyline points="4.06914,90.9133 5.76569,90.3121 9.24751,89.0637 11.6848,88.1659 12.3292,87.9029 13.14,87.5216 15.8092,86.1609 17.9223,85.0326 21.3276,83.1385 22.7953,82.2855 23.8133,81.6543 25.7373,80.3972 26.4763,79.8868 28.74,78.2416 30.6892,76.7872 31.9274,75.8302 33.8804,74.271 37.9986,70.936 39.5543,69.673 39.6927,69.5652 40.0798,69.2828 40.6514,68.8862 41.2337,68.5028 42.0762,67.9661 42.8177,67.4867 42.9161,67.4011 43.2982,66.9196 43.3848,66.7213 43.6574,65.3085 " fill="none" stroke-width="1" stroke="rgb(232,26,75)" />
	<polyline points="22.037,43.6804 22.6114,43.9987 23.4538,44.4114 23.7818,44.5045 24.5118,44.5489 26.8971,44.4785 28.6908,44.3604 30.88,44.1572 32.7678,43.9511 36.7244,43.4861 40.7113,43.0156 41.8804,42.8875 42.0686,42.8782 43.3943,42.8897 43.5717,42.8985 43.6309,42.9097 43.8359,42.9797 44.7277,43.3523 45.1441,43.5892 45.5957,43.982 45.9252,44.4437 46.1494,45.0414 48.3118,54.4376 48.7439,56.4058 48.8157,56.7455 49.7898,61.3737 49.8231,61.436 49.9171,61.5061 51.2704,62.2664 52.0767,62.8172 53.6428,64.1157 53.8074,64.2699 53.8672,64.3357 53.9663,64.4572 54.4854,65.1116 55.3016,66.1251 55.3926,66.2133 55.6231,66.3744 56.0786,66.6607 56.5016,66.9313 57.0318,67.2968 59.3751,69.0005 64.3688,72.6742 67.1885,74.7473 69.0801,76.1216 71.4907,77.8399 73.8683,79.4981 75.2127,80.4031 76.9572,81.5284 78.6558,82.5802 79.4699,83.0497 80.9308,83.8257 83.0715,84.9011 85.143,85.8907 86.4187,86.4592 87.3438,86.83 88.6583,87.3015 90.0803,87.7665 91.3613,88.1476 92.9602,88.5846 93.4408,88.7014 93.8318,88.7834 94.1482,88.8455 94.5437,88.925 94.89,88.9977 " fill="none" stroke-width="1" stroke="rgb(232,26,75)" />
	<polyline points="87.9884,61.0771 87.9707,61.1869 87.966,61.2147 87.8676,61.7424 87.853,61.7607 87.5218,61.8903 87.3431,61.9288 85.9827,62.0421 82.7932,62.2468 80.9965,62.3502 79.2995,62.4452 73.5096,62.7808 63.8279,63.3678 56.2835,63.8498 54.5306,63.9757 54.3035,64.0014 53.6192,64.1071 " fill="none" stroke-width="1" stroke="rgb(232,26,75)" />
	<polyline points="48.9363,40.0534 49.2189,43.943 49.5745,48.93 49.9466,54.3168 50.0814,56.4119 50.3943,61.6022 " fill="none" stroke-width="1" stroke="rgb(232,26,75)" />
	<polyline points="46.7733,40.0698 46.7908,40.1301 46.9237,40.6782 47.6076,43.9287 47.8694,45.5791 48.4605,50.9366 48.7471,54.0224 48.9513,56.5139 " fill="none" stroke-width="1" stroke="rgb(232,26,75)" />
	<polyline points="53.4681,6.19927 53.5174,7.19688 53.6256,8.5613 53.7096,9.02896 53.9053,9.65804 54.144,10.2821 54.3749,10.8775 54.3926,10.9823 54.2534,17.2938 54.1684,20.8924 54.1334,22.6912 54.109,24.69 54.0921,26.8919 " fill="none" stroke-width="1" stroke="rgb(232,26,75)" />
	<polyline points="53.4315,6.24029 53.9131,6.37344 54.3923,6.51306 55.8241,6.95535 56.6764,7.23732 58.088,7.73942 59.5857,8.29778 60.0486,8.48228 60.9697,8.86988 " fill="none" stroke-width="1" stroke="rgb(232,26,75)" />
	<polyline points="40.5013,8.50036 41.744,8.87705 43.5026,9.41016 " fill="none" stroke-width="1" stroke="rgb(232,26,75)" />
	<polyline points="66.1083,22.9407 66.4014,22.7669 66.5363,22.6912 66.6953,22.6064 66.789,22.5529 66.8912,22.4815 67.0628,22.3312 67.7454,21.647 68.7687,20.5579 69.4952,19.7352 70.1483,18.9438 71.3093,17.4789 72.1353,16.4408 73.8951,14.3107 74.7412,13.3953 75.3203,12.8829 75.8035,12.5254 75.8244,12.5135 76.237,12.3248 76.7723,12.0807 " fill="none" stroke-width="1" stroke="rgb(232,26,75)" />
	<polyline points="21.0217,14.1165 21.184,14.1851 21.6757,14.4111 22.2956,14.7344 22.8419,15.0771 23.2948,15.4355 24.3951,16.4713 25.571,17.6917 27.277,19.6117 30.473,23.3841 30.8125,23.8265 30.8471,23.9046 30.8812,24.0916 30.8826,24.1027 30.9203,24.466 30.9635,24.8741 " fill="none" stroke-width="1" stroke="rgb(232,26,75)" />
	<polyline points="7.02627,28.969 7.65704,29.111 7.78633,29.1646 8.2897,29.4889 8.65935,29.7412 8.95764,29.9346 9.019,29.9565 9.72435,30.0367 9.97877,30.0395 14.345,29.7277 26.1088,28.8278 28.2022,28.6637 33.1864,28.2684 35.1802,28.1137 38.9777,27.8319 40.7642,27.7122 46.7529,27.3538 51.9444,27.063 54.1075,26.9555 56.0387,26.8747 58.6366,26.7773 60.0353,26.7238 62.1326,26.635 64.0808,26.5411 69.0227,26.2815 75.9129,25.9147 82.6037,25.569 84.7004,25.4758 86.4978,25.4157 88.0961,25.3732 89.495,25.3336 92.6278,25.2239 93.7741,25.1716 93.9781,25.1584 " fill="none" stroke-width="1" stroke="rgb(232,26,75)" />
	<polyline points="34.3801,28.1875 34.9699,29.7016 35.4122,30.8138 37.2071,35.2634 37.906,37.0263 38.4166,38.3774 38.8661,39.6529 39.2364,40.7913 39.4329,41.4608 39.8671,43.0573 " fill="none" stroke-width="1" stroke="rgb(232,26,75)" />
	<polyline points="57.9462,41.9751 58.0521,40.9621 58.1696,39.971 58.2728,39.2833 58.3716,38.7997 58.5229,38.2244 58.7265,37.5572 58.945,36.893 59.3556,35.6605 59.7487,34.4254 60.0505,33.3757 60.2093,32.7038 60.2888,32.2176 60.3442,31.6247 60.3677,31.0281 60.3655,30.3307 60.3429,29.7331 60.2541,28.2365 60.1577,26.7641 " fill="none" stroke-width="1" stroke="rgb(232,26,75)" />
</svg>
