<?xml version="1.0" standalone="no" ?>
<!DOCTYPE svg PUBLIC "-//W3C//DTD SVG 1.1//EN" "http://www.w3.org/Graphics/SVG/1.1/DTD/svg11.dtd">
<svg width="100px" height="100px" xmlns="http://www.w3.org/2000/svg" version="1.1" >
	<image style="overflow: visible; opacity: 0.4" width="100" height="100" xlink:href="../sample_inputs/h.png" transform="matrix(1 0 -0.5 0 1 0 )" />
	<polyline points="49.3835,6.64167 49.6252,7.5772 49.6747,7.79222 49.6872,7.88458 50.0945,13.911 50.5225,20.0955 50.7448,22.9846 50.9511,25.2714 50.9692,25.3157 51.0581,25.4072 51.1366,25.467 51.1634,25.4813 51.2756,25.5271 51.3224,25.5455 51.4797,25.6063 51.4922,25.6094 51.833,25.6553 51.8477,25.6588 51.9822,25.7066 52.0792,25.7408 52.182,25.7755 52.1966,25.78 52.4065,25.8386 52.457,25.8521 52.5521,25.8755 52.5682,25.8782 52.7543,25.8995 52.7665,25.9045 52.8267,25.9589 52.8763,26.0274 52.9205,26.1375 53.3252,27.6627 53.7685,29.4143 53.9819,30.2797 54.4554,32.2225 55.1176,34.9426 55.5932,36.8848 55.9334,38.2426 56.4882,40.3701 56.9162,41.9088 58.0488,45.7423 58.7321,47.936 59.3953,49.9262 59.9676,51.5249 60.821,53.7662 61.711,55.9932 62.184,57.0937 63.0786,59.0191 64.0857,61.0537 65.1609,63.0795 66.2978,65.0687 67.4285,66.9062 68.5443,68.598 69.0141,69.2393 70.1447,70.6354 72.0206,72.8439 74.3959,75.546 76.4153,77.7596 78.1406,79.562 79.8436,81.2451 81.5206,82.8109 83.2274,84.3211 84.7663,85.6181 85.7797,86.4287 86.498,86.968 87.3944,87.6031 88.3853,88.2782 90.2119,89.4989 " fill="none" stroke-width="1" stroke="rgb(232,26,75)" />
	<polyline points="49.3835,6.64167 50.4596,6.89071 52.5008,7.37345 53.0792,7.51998 53.9466,7.75521 " fill="none" stroke-width="1" stroke="rgb(232,26,75)" />
	<polyline points="50.269,17.233 52.3133,17.1645 53.6111,17.1101 54.3079,17.0651 55.9004,16.9249 57.5905,16.7513 58.98,16.5872 60.5652,16.3764 62.9787,16.0313 66.0065,15.5802 67.6859,15.3178 71.1382,14.7494 72.5073,14.5048 72.7623,14.445 72.8413,14.415 72.8514,14.4042 72.9022,14.273 72.9247,14.2078 72.9596,14.1017 72.9645,14.0868 " fill="none" stroke-width="1" stroke="rgb(232,26,75)" />
	<polyline points="28.9037,14.592 29.3007,16.9265 29.6881,19.2927 30.0211,21.4654 30.7126,26.2146 30.9801,28.0954 31.198,29.6492 " fill="none" stroke-width="1" stroke="rgb(232,26,75)" />
	<polyline points="26.0285,13.1293 26.3091,13.5192 26.4308,13.6138 27.7724,14.1676 28.9037,14.592 " fill="none" stroke-width="1" stroke="rgb(232,26,75)" />
	<polyline points="17.9513,29.7986 17.8132,29.8109 17.8132,29.8109 17.9046,29.8315 18.1013,29.8799 18.657,30.0282 18.9292,30.1084 19.021,30.1431 19.5989,30.4082 19.7842,30.5056 19.9473,30.6012 19.972,30.6102 20.0441,30.6146 20.7903,30.5813 22.4832,30.4692 24.1762,30.3293 29.9512,29.797 31.8426,29.6198 35.0285,29.3218 36.9203,29.1469 47.9737,28.1363 50.0648,27.949 53.7503,27.6255 56.4395,27.389 65.8028,26.5633 70.8836,26.124 72.6772,25.9818 74.7709,25.8366 76.4667,25.7305 78.0633,25.6322 80.9678,25.4366 81.8233,25.3579 81.8702,25.3371 81.9277,25.2683 81.9888,25.1593 " fill="none" stroke-width="1" stroke="rgb(232,26,75)" />
	<polyline points="75.0939,32.0592 75.3265,32.2452 75.568,32.4292 75.6501,32.483 75.7238,32.522 76.0355,32.6745 76.5593,32.9494 76.9804,33.2018 77.806,33.7599 78.8589,34.5204 81.1754,36.2628 82.8309,37.5514 84.8171,39.1569 86.5903,40.6342 86.742,40.7744 86.9103,40.95 " fill="none" stroke-width="1" stroke="rgb(232,26,75)" />
	<polyline points="19.6499,42.7595 21.2491,42.7275 23.1451,42.6704 24.9389,42.5849 27.1311,42.4379 28.8232,42.2921 31.0479,42.0634 41.431,40.9239 41.6005,40.9066 44.23,40.6629 48.2448,40.2921 48.3453,40.2818 53.8714,39.6588 57.3477,39.2614 63.7052,38.5315 65.295,38.3606 66.4885,38.2534 68.3817,38.1179 69.3786,38.0674 70.3767,38.0427 71.8758,38.0348 73.7751,38.0457 74.274,38.056 74.6632,38.0721 74.8601,38.0844 74.9818,38.0939 " fill="none" stroke-width="1" stroke="rgb(232,26,75)" />
	<polyline points="19.6499,42.7595 19.7079,44.8937 19.7669,46.6915 19.8434,48.5839 19.9219,50.3703 19.9459,51.0345 19.9991,53.1886 20.0322,55.1637 20.0264,55.3333 19.9911,55.6664 19.6845,57.9429 19.3716,60.119 19.0534,62.1938 18.691,64.4455 18.6549,64.6361 18.3293,66.1114 18.0556,67.2779 17.8078,68.2453 17.4084,69.6899 16.7704,71.8986 16.1372,74.0287 16.0808,74.1884 15.297,76.0829 14.3872,78.1885 13.4747,80.1849 12.6866,81.7989 12.2308,82.6471 11.3545,84.1383 10.4229,85.6343 8.87131,88.0261 8.37795,88.7521 7.45374,90.0569 5.2133,93.2038 5.15787,93.3106 5.12776,93.4355 5.12255,93.5364 5.13209,93.7272 5.14522,93.9133 5.15113,93.9991 " fill="none" stroke-width="1" stroke="rgb(232,26,75)" />
	<polyline points="50.0114,91.8481 50.0248,91.7676 50.0634,91.5455 50.074,91.4983 50.0941,91.435 50.1705,91.2413 50.2596,91.0563 50.3427,90.9304 50.4323,90.8416 52.5706,89.1822 53.1235,88.7536 54.428,87.7277 55.3364,86.989 55.8346,86.5517 57.9485,84.5704 60.0316,82.5568 61.58,80.9986 63.6504,78.8318 65.4171,76.9278 66.9525,75.2365 67.042,75.1298 68.5284,73.2176 68.5836,73.1354 68.8034,72.7475 68.8968,72.5829 69.0339,72.3567 69.1432,72.2007 71.993,68.5011 72.8409,67.3897 73.7175,66.2144 73.8327,66.0442 74.7962,64.4752 75.5362,63.247 75.6265,63.0849 76.5234,61.3464 76.5927,61.2062 77.5185,59.2462 78.3763,57.4082 78.469,57.1909 79.1132,55.5194 79.4516,54.5988 79.5071,54.413 79.5818,54.0746 79.621,53.8467 79.7345,53.0208 79.7357,52.9268 79.6854,52.5569 79.6044,52.163 79.5125,51.8541 79.4334,51.6853 79.1026,51.1617 78.0072,49.549 77.6418,49.0205 " fill="none" stroke-width="1" stroke="rgb(232,26,75)" />
	<polyline points="28.0415,54.9976 28.5303,54.951 28.7367,54.9302 30.0161,54.7941 34.0956,54.3572 39.9623,53.7328 42.6479,53.4558 48.8169,52.8458 50.5081,52.6917 51.6035,52.6065 53.0997,52.5041 55.3903,52.3502 55.8912,52.3129 55.9945,52.3036 " fill="none" stroke-width="1" stroke="rgb(232,26,75)" />
	<polyline points="41.6157,53.5278 42.0581,57.0376 42.2543,58.8219 42.4376,61.0079 42.5779,63.3988 42.6528,65.5945 42.6925,68.4926 42.693,72.0917 42.6585,75.6907 42.6194,77.5892 42.5843,78.4872 42.5061,79.884 42.4318,81.0601 " fill="none" stroke-width="1" stroke="rgb(232,26,75)" />
	<polyline points="51.1265,62.0305 51.3715,62.2824 51.4601,62.3817 52.666,63.8581 53.6625,65.1275 55.153,67.1272 56.2975,68.7602 57.2138,70.1846 59.0083,73.1784 59.4174,73.9289 59.5911,74.3169 59.8394,74.9722 " fill="none" stroke-width="1" stroke="rgb(232,26,75)" />
	<polyline points="21.1298,83.9483 21.2931,83.7665 21.3688,83.6723 22.9322,81.5176 24.0237,79.9657 25.4178,77.8943 26.7084,75.875 27.8812,73.9023 28.9619,71.8832 29.9131,69.815 30.7012,67.7123 31.6288,64.6954 31.8631,63.7234 31.966,63.1403 " fill="none" stroke-width="1" stroke="rgb(232,26,75)" />
	<polyline points="90.2119,89.4989 91.647,84.8535 92.1843,83.0352 92.7915,80.8215 93.0798,79.6609 93.2005,79.0774 93.278,78.5862 93.4573,77.199 93.5525,76.4068 93.6649,75.4146 93.7955,74.2077 93.8099,74.0566 93.8116,74.033 " fill="none" stroke-width="1" stroke="rgb(232,26,75)" />
	<polyline points="34.0069,78.01 34.1994,78.1361 34.4495,78.2836 34.6337,78.3704 35.642,78.7636 36.2974,79.0068 38.3667,79.7494 39.3105,80.0754 40.3548,80.4166 41.5948,80.8045 42.4318,81.0601 " fill="none" stroke-width="1" stroke="rgb(232,26,75)" />
</svg>
