<?xml version="1.0" standalone="no" ?>
<!DOCTYPE svg PUBLIC "-//W3C//DTD SVG 1.1//EN" "http://www.w3.org/Graphics/SVG/1.1/DTD/svg11.dtd">
<svg width="100px" height="100px" xmlns="http://www.w3.org/2000/svg" version="1.1" >
	<image style="overflow: visible; opacity: 0.4" width="100" height="100" xlink:href="../sample_inputs/i.png" transform="matrix(1 0 -0.5 0 1 0 )" />
	<polyline points="46.9738,77.9406 46.8307,77.1474 46.7339,76.7082 46.4798,75.7984 46.1946,74.9675 45.7767,73.9602 43.9628,69.9541 43.177,68.2247 42.6141,66.9455 42.1213,65.7471 41.8505,65.0003 41.5916,64.145 41.3251,63.0836 41.0098,61.5906 40.7718,60.2464 40.4947,58.3697 40.2452,56.3873 39.9988,54.1016 39.7096,51.0159 39.4572,47.9009 39.3412,46.0347 39.275,44.2401 39.2468,42.1436 39.26,40.1457 39.3083,38.1472 39.4832,33.1508 39.6728,28.4555 39.7154,27.7582 39.937,25.1694 40.1336,23.2818 40.6025,19.6148 40.9831,17.3623 41.2502,16.4436 42.1364,14.4189 42.5242,13.8497 42.8238,13.6542 44.3799,13.1722 44.706,13.0927 44.924,13.0485 44.9916,13.0354 " fill="none" stroke-width="1" stroke="rgb(232,26,75)" />
	<polyline points="18.0775,30.7295 18.8759,30.6878 19.8763,30.6373 22.6692,30.4966 24.9646,30.3688 26.8583,30.2402 28.8493,30.0714 39.0018,29.1 42.6813,28.7208 44.5658,28.4958 46.9404,28.1662 49.2108,27.812 50.9824,27.5022 52.9447,27.1225 54.9013,26.7128 56.8524,26.2769 58.7984,25.8181 60.6421,25.3611 64.8808,24.2642 66.5335,23.7944 67.3711,23.4898 70.0246,22.291 71.1087,21.689 71.8372,21.1788 71.9532,21.0783 71.9622,21.0682 " fill="none" stroke-width="1" stroke="rgb(232,26,75)" />
	<polyline points="24.0398,81.1337 25.0724,80.5965 26.839,79.6619 28.5044,78.753 29.2783,78.2998 30.882,77.2875 31.9573,76.5634 33.7422,75.2837 35.1746,74.1999 37.1277,72.6439 41.2197,69.2787 43.2003,67.5982 44.5391,66.4019 45.2508,65.7081 46.7579,64.113 48.0881,62.6256 49.178,61.3264 50.9156,59.1355 52.301,57.3038 53.8186,55.1971 55.0111,53.4603 55.9879,51.9658 56.8847,50.5389 56.9797,50.3721 57.8358,48.7177 58.6327,47.1501 58.687,47.0271 59.0148,46.1515 59.0544,46.0234 59.1153,45.7636 59.1351,45.6591 59.1616,45.4989 59.1807,45.4011 59.2574,45.0927 59.3232,44.8882 59.9299,43.2849 60.5346,41.6972 61.0555,40.2952 61.4782,39.0936 61.5165,38.9376 61.5944,38.3603 61.6085,38.1492 61.6094,37.2997 61.5844,37.1206 61.4696,36.7608 61.2925,36.3097 61.2547,36.218 61.1675,36.0021 61.0808,35.7814 " fill="none" stroke-width="1" stroke="rgb(232,26,75)" />
	<polyline points="60.86,35.5244 61.3378,35.8866 61.8861,36.3189 63.1912,37.4003 63.6187,37.7913 63.7608,37.9584 63.9033,38.1766 63.9407,38.2435 " fill="none" stroke-width="1" stroke="rgb(232,26,75)" />
	<polyline points="16.3897,69.287 17.0388,67.8435 17.6866,66.3954 17.7617,66.2225 18.024,65.6091 18.0961,65.4606 18.632,64.4936 19.1522,63.6032 19.5864,62.9105 20.1433,62.0821 20.6652,61.3508 21.2069,60.6339 21.828,59.8519 22.4032,59.1612 23.1246,58.3324 23.6805,57.722 24.4204,56.9462 25.0546,56.3095 25.7202,55.6722 26.5136,54.9451 27.3389,54.2196 28.1127,53.5697 29.0392,52.8281 30.0708,52.0401 31.4403,51.0369 32.3395,50.4076 33.336,49.7423 33.9716,49.3364 35.0667,48.661 35.7433,48.2555 35.91,48.1654 36.4109,47.9282 37.3206,47.5284 38.1508,47.1886 39.8273,46.5373 41.2737,45.9829 41.4934,45.8951 42.8411,45.3315 43.3509,45.1182 43.596,45.0203 43.9239,44.9027 44.9634,44.566 46.111,44.2223 48.0453,43.6814 50.062,43.1396 51.6207,42.7297 51.7528,42.6949 53.6446,42.1935 54.286,42.0283 54.7905,41.9133 55.6379,41.7602 56.304,41.6814 57.0944,41.6382 57.6743,41.6324 57.8046,41.6406 57.9053,41.6598 58.5102,41.831 59.0724,42.0134 61.7134,42.9325 62.5436,43.2033 62.696,43.2288 62.9301,43.2199 63.2717,43.1732 63.595,43.1226 64.1968,43.0444 65.1757,42.958 65.3962,42.9677 66.198,43.1134 67.9033,43.4786 68.0605,43.5167 68.1657,43.5485 69.144,43.8918 69.8859,44.1767 70.7081,44.5325 71.5143,44.924 72.3908,45.3969 73.2465,45.9054 74.1643,46.5025 74.8867,47.0195 75.6731,47.6393 76.5045,48.3523 77.1587,48.9637 77.8558,49.675 78.523,50.4143 79.0276,51.029 79.6321,51.8421 80.1203,52.5689 80.6976,53.5235 81.1077,54.2848 81.5278,55.176 81.912,56.1081 82.2202,56.9791 82.495,57.9023 82.6803,58.6741 82.8412,59.5538 82.9572,60.4407 83.0277,61.3322 83.0682,62.5258 83.058,63.42 82.9932,64.5393 82.9179,65.2021 82.7333,66.2801 82.559,67.0538 82.2628,68.106 81.9779,68.9526 81.6467,69.7819 81.2305,70.6839 80.8151,71.4751 80.2607,72.4188 79.7726,73.169 79.1919,73.9772 78.6375,74.6805 77.9237,75.5121 77.2464,76.2422 76.61,76.8729 75.8013,77.6128 75.1167,78.191 74.1741,78.928 73.1721,79.6618 72.3038,80.2549 71.4606,80.787 70.4269,81.3909 69.3749,81.9616 68.1277,82.5902 67.0191,83.1072 65.9429,83.566 64.7339,84.0354 63.5108,84.4671 62.085,84.9235 60.6469,85.3394 59.1981,85.712 57.2516,86.1563 56.2749,86.3422 55.1914,86.4991 52.0803,86.8755 52.0074,86.8817 51.9892,86.8808 51.8786,86.8629 51.1764,86.7393 51.0875,86.7234 " fill="none" stroke-width="1" stroke="rgb(232,26,75)" />
	<polyline points="16.3897,69.287 16.6503,69.8038 16.9167,70.3387 18.1179,72.7548 18.4862,73.4582 18.9822,74.324 19.5261,75.1901 20.2959,76.3183 21.0924,77.4091 21.9155,78.4722 24.0398,81.1337 " fill="none" stroke-width="1" stroke="rgb(232,26,75)" />
</svg>
