<?xml version="1.0" standalone="no" ?>
<!DOCTYPE svg PUBLIC "-//W3C//DTD SVG 1.1//EN" "http://www.w3.org/Graphics/SVG/1.1/DTD/svg11.dtd">
<svg width="100px" height="100px" xmlns="http://www.w3.org/2000/svg" version="1.1" >
	<image style="overflow: visible; opacity: 0.4" width="100" height="100" xlink:href="../sample_inputs/j.png" transform="matrix(1 0 -0.5 0 1 0 )" />
	<polyline points="35.7342,9.17541 34.8371,10.5071 31.8647,14.8945 30.5581,16.7861 28.9912,18.982 27.6831,20.7457 26.7051,22.0051 25.6766,23.2853 25.6339,23.3372 " fill="none" stroke-width="1" stroke="rgb(232,26,75)" />
	<polyline points="28.141,52.1813 28.1454,50.6903 28.1564,49.0911 28.2098,44.0918 28.2735,39.0923 28.3536,33.4932 28.4342,27.9944 28.4584,25.8972 28.4526,25.6 28.4153,24.9175 28.3761,24.1461 28.3634,22.8422 28.4373,22.375 28.6768,21.8213 30.2513,19.1743 31.8281,16.6243 34.9118,11.6202 35.6361,10.3739 35.7936,10.0435 35.8162,9.94746 35.8375,9.54261 35.8496,9.01956 " fill="none" stroke-width="1" stroke="rgb(232,26,75)" />
	<polyline points="9.04655,37.9385 9.10452,37.8139 9.17684,37.657 9.23085,37.5423 9.31155,37.3862 9.33923,37.3512 9.45201,37.2604 12.5767,35.026 13.7113,34.2074 15.0444,33.2217 15.9458,32.5268 17.1097,31.5839 18.4063,30.4873 19.4887,29.5317 20.7059,28.4149 22.2067,27.0057 22.2914,26.9207 24.069,25.0221 24.8183,24.2173 25.6339,23.3372 " fill="none" stroke-width="1" stroke="rgb(232,26,75)" />
	<polyline points="79.9816,17.0467 79.8638,17.3714 79.7959,17.4747 79.7074,17.5222 78.9499,17.6513 76.2725,17.9728 74.6828,18.145 72.8957,18.3399 70.9132,18.5801 65.3631,19.315 55.1591,20.714 53.6753,20.9305 49.0323,21.6562 43.703,22.522 37.3986,23.5856 35.674,23.898 35.3,23.982 34.4075,24.2191 33.7327,24.3989 30.5374,25.2095 29.1812,25.5018 28.3383,25.6192 27.4755,25.6832 25.075,25.8644 24.3903,26.04 23.1352,26.6953 22.0143,27.4827 20.6189,28.6218 " fill="none" stroke-width="1" stroke="rgb(232,26,75)" />
	<polyline points="50.9192,95.981 50.8734,95.695 50.7987,94.9572 50.6806,92.6909 50.5271,87.2979 50.5157,85.3992 50.6177,78.1011 50.7322,73.9057 50.8982,70.2267 51.0242,68.2649 51.0861,67.5255 51.2184,65.9843 51.2838,64.8065 51.3057,63.1146 51.2621,60.8179 51.168,58.5215 51.0969,57.4255 50.951,55.7336 50.807,54.2415 50.6807,52.948 50.5336,51.2555 50.4064,49.2661 50.3935,48.282 50.4633,46.5541 50.5016,46.2012 50.6286,45.401 50.7383,44.556 51.0778,40.9423 51.4241,36.7097 51.447,36.3793 51.6202,33.446 51.6362,33.0169 51.6461,31.9214 51.6408,28.9969 51.6336,28.7822 51.4588,26.042 51.2597,22.9493 51.1538,21.1532 51.0703,19.3579 51.0729,18.9639 51.1123,18.5743 51.2355,17.8949 51.3993,17.2272 51.5529,16.7586 51.7847,16.2123 52.2773,15.2337 53.8695,12.3503 55.1425,10.2183 57.2858,6.87294 57.6026,6.43316 57.6454,6.40649 58.3069,6.26961 58.6556,6.19088 58.7696,6.14959 58.9403,6.06189 " fill="none" stroke-width="1" stroke="rgb(232,26,75)" />
	<polyline points="28.377,33.6209 30.8264,33.3365 33.3092,33.0461 46.2197,31.5267 48.0325,31.3129 50.9865,30.9655 54.9594,30.5057 60.4242,29.8887 65.8912,29.2915 67.582,29.124 68.3784,29.0665 69.9748,28.9972 71.8696,28.9483 72.7426,28.9423 72.9262,28.9492 73.0909,28.9655 74.878,29.1958 74.9932,29.211 " fill="none" stroke-width="1" stroke="rgb(232,26,75)" />
	<polyline points="28.2211,42.2814 31.5839,41.9667 34.2704,41.7062 38.0506,41.3224 43.1228,40.7916 50.6804,39.9914 56.15,39.4146 61.8191,38.8229 67.2925,38.2515 69.0764,38.0529 70.7599,37.8347 74.5598,37.2666 74.7463,37.2049 74.9765,37.068 " fill="none" stroke-width="1" stroke="rgb(232,26,75)" />
	<polyline points="28.141,52.1813 30.7477,51.9566 32.8394,51.7729 42.7998,50.8856 44.8914,50.7001 45.9871,50.6047 47.9798,50.4357 51.9659,50.1037 55.9525,49.778 69.8077,48.6649 73.2968,48.3906 75.0909,48.251 76.6842,48.1144 78.8674,47.8816 80.3277,47.6643 81.5862,47.4053 81.8732,47.318 81.994,47.2658 " fill="none" stroke-width="1" stroke="rgb(232,26,75)" />
	<polyline points="12.0539,64.9505 12.7245,65.2226 13.4206,65.4748 13.9146,65.6111 14.8993,65.8086 15.0335,65.8183 16.1262,65.7676 17.9193,65.6463 19.7114,65.4935 24.9856,64.9781 37.221,63.7271 39.4063,63.4871 40.8939,63.3035 44.5621,62.822 46.7429,62.5425 47.238,62.4936 49.0009,62.3773 50.8282,62.2825 52.8256,62.2015 54.0244,62.1646 56.2264,62.1091 56.3556,62.1036 58.0177,62.0023 61.0111,61.8142 63.007,61.6881 70.8917,61.1983 74.0861,61.0185 77.9805,60.8413 80.4757,60.7732 82.1691,60.7873 84.0555,60.8982 85.8234,61.1162 87.6633,61.4877 87.9044,61.6215 88.5087,62.2993 88.678,62.5852 88.8379,63.0286 88.9389,63.4284 88.9949,63.7116 " fill="none" stroke-width="1" stroke="rgb(232,26,75)" />
	<polyline points="5.0807,90.9602 5.25509,90.8922 7.73615,89.9355 9.88136,89.1113 11.6515,88.4248 12.2029,88.1944 13.8378,87.4498 15.819,86.5025 17.8264,85.4998 19.9139,84.4211 21.3202,83.678 21.4625,83.5989 23.5711,82.3759 24.4379,81.8682 24.5524,81.7964 26.0233,80.8121 27.6734,79.6849 28.8146,78.8766 30.2608,77.8076 32.1662,76.351 34.2906,74.687 36.7951,72.6962 40.1575,70.0166 41.1812,69.2185 41.9021,68.6866 42.315,68.4119 43.5099,67.6884 43.8579,67.4997 44.1279,67.3825 44.5962,67.2228 45.6465,66.9167 46.0268,66.8259 46.3743,66.7664 46.4703,66.7601 46.9607,66.7672 47.0532,66.7673 48.8928,66.7355 50.7919,66.7083 52.9886,66.6929 53.3844,66.7044 54.0795,66.7594 54.8747,66.8513 55.0531,66.8893 55.1674,66.9381 55.4868,67.1369 56.1197,67.5821 56.7993,68.0943 58.8045,69.6636 62.3821,72.4837 64.4628,74.115 68.1763,76.9945 70.3231,78.6299 71.7708,79.6971 73.3209,80.7931 74.975,81.9136 76.6519,82.9986 78.0757,83.871 79.3955,84.6307 80.9732,85.4902 82.1241,86.0892 83.1979,86.6212 84.8479,87.3941 85.9611,87.8649 86.2335,87.935 86.9902,88.0109 88.1559,88.0865 89.7459,88.179 90.4427,88.2057 91.9792,88.2034 92.387,88.1507 92.9944,87.9858 93.0169,87.9801 93.3378,87.9208 93.6984,87.8688 93.9855,87.8381 " fill="none" stroke-width="1" stroke="rgb(232,26,75)" />
</svg>
