<?xml version="1.0" standalone="no" ?>
<!DOCTYPE svg PUBLIC "-//W3C//DTD SVG 1.1//EN" "http://www.w3.org/Graphics/SVG/1.1/DTD/svg11.dtd">
<svg width="100px" height="100px" xmlns="http://www.w3.org/2000/svg" version="1.1" >
	<image style="overflow: visible; opacity: 0.4" width="100" height="100" xlink:href="../sample_inputs/l.png" transform="matrix(1 0 -0.5 0 1 0 )" />
	<polyline points="46.3412,5.80507 46.4356,6.80013 46.5602,7.92301 46.7142,9.07274 47.0712,11.5133 47.1626,12.2164 47.2745,13.3211 47.462,15.4974 " fill="none" stroke-width="1" stroke="rgb(232,26,75)" />
	<polyline points="48.059,20.5119 48.0377,18.1932 48.0025,16.8035 47.8949,14.1841 47.8949,14.1841 47.462,15.4974 " fill="none" stroke-width="1" stroke="rgb(232,26,75)" />
	<polyline points="44.5336,21.0723 42.3935,21.3264 42.1761,21.3452 40.1363,21.4502 39.8966,21.4513 38.2019,21.3934 37.4945,21.3993 34.6608,21.5663 27.7966,22.0877 22.8154,22.5028 17.933,22.9074 13.9489,23.1823 11.1075,23.2929 10.5182,23.252 9.77536,23.0955 9.06283,22.8945 " fill="none" stroke-width="1" stroke="rgb(232,26,75)" />
	<polyline points="36.6595,30.6062 36.7497,30.495 37.5284,29.5526 37.6461,29.4245 39.6805,27.4222 40.3139,26.804 40.4592,26.6674 40.5503,26.5907 41.0403,26.2213 41.4463,25.9387 41.8658,25.674 42.2931,25.4195 42.6289,25.2075 43.0102,24.91 43.3386,24.5419 43.4906,24.2167 44.1105,21.7638 44.149,21.6306 44.1821,21.5562 44.2366,21.4714 44.3609,21.3048 44.4618,21.1707 44.5336,21.0723 " fill="none" stroke-width="1" stroke="rgb(232,26,75)" />
	<polyline points="44.5336,21.0723 46.9436,20.689 48.0299,20.5162 " fill="none" stroke-width="1" stroke="rgb(232,26,75)" />
	<polyline points="36.6595,30.6062 35.7987,31.3036 34.7056,32.1769 33.6022,33.0354 33.1995,33.3267 32.6986,33.6519 31.164,34.5878 30.1125,35.2247 28.8777,36.0109 27.9709,36.6908 26.5855,37.986 25.9866,38.7665 25.2536,40.1159 25.2365,40.2169 25.3442,41.0145 25.3621,41.1598 25.3584,41.1912 25.2777,41.4003 25.1949,41.5691 25.1169,41.6934 25.0006,41.8528 " fill="none" stroke-width="1" stroke="rgb(232,26,75)" />
	<polyline points="66.1416,31.2744 65.1797,32.2473 64.6124,32.8073 64.3951,33.0023 64.3215,33.048 64.1438,33.1129 63.1852,33.3791 62.5079,33.5458 61.0446,33.8706 60.066,34.0757 58.9874,34.2907 57.8092,34.5169 56.2367,34.8103 52.893,35.4252 49.5492,36.0409 44.6344,36.9584 42.2799,37.4178 39.933,37.9097 37.9855,38.353 36.4363,38.7403 35.7665,38.9327 34.2677,39.4112 32.9132,39.849 31.8274,40.1807 29.7854,40.7446 26.5771,41.5514 25.6827,41.7398 25.0006,41.8528 " fill="none" stroke-width="1" stroke="rgb(232,26,75)" />
	<polyline points="46.2493,5.85964 48.511,6.27065 50.0747,6.58807 52.4991,7.16039 54.1091,7.6117 54.6245,7.81029 54.7718,7.90965 54.8932,8.04447 54.9045,8.07076 54.9254,8.21747 " fill="none" stroke-width="1" stroke="rgb(232,26,75)" />
	<polyline points="59.0613,25.0043 59.154,25.2948 59.1687,25.3325 59.2275,25.448 59.2732,25.5112 59.5048,25.7461 60.3627,26.5333 61.1328,27.1986 62.9627,28.7118 64.5851,30.0329 68.3975,33.122 71.9518,36.0073 72.0799,36.1173 72.1876,36.221 72.2902,36.3338 73.5768,37.892 74.0459,38.528 74.4138,39.1016 74.4435,39.1468 74.5187,39.2474 74.9831,39.829 " fill="none" stroke-width="1" stroke="rgb(232,26,75)" />
	<polyline points="30.2767,49.9935 32.6457,49.703 34.8274,49.4296 43.8542,48.2826 48.3188,47.7261 50.7016,47.4485 53.0876,47.2002 55.0785,47.0216 57.1674,46.8649 59.0665,46.747 61.0228,46.6449 61.1418,46.6441 62.7647,46.7108 63.5611,46.7611 65.051,46.8965 66.5357,47.0645 67.4186,47.1874 68.3839,47.3413 " fill="none" stroke-width="1" stroke="rgb(232,26,75)" />
	<polyline points="30.2767,49.9935 30.5205,53.2005 30.6393,54.8958 30.7459,56.6917 30.8302,58.4889 30.8942,60.387 30.9357,62.3857 30.9499,64.2849 30.9389,67.9843 30.9007,71.8834 30.8589,74.2823 30.7765,77.7809 30.6311,83.5788 30.5621,86.5768 30.5069,89.1748 30.464,90.6734 30.3949,91.9665 30.3202,92.615 30.2756,92.7306 30.098,92.9809 " fill="none" stroke-width="1" stroke="rgb(232,26,75)" />
	<polyline points="68.3839,47.3413 68.479,49.1025 68.5531,50.6988 68.5699,51.3963 68.5717,52.9951 68.5505,55.7948 68.5264,57.8945 68.4279,65.0937 68.2986,73.4924 68.2402,76.191 68.1659,78.3886 68.0754,80.1847 67.9618,81.7787 67.8192,83.2694 67.6487,84.6556 67.4942,85.6398 67.2352,87.0118 66.9119,88.5764 66.7542,89.3061 " fill="none" stroke-width="1" stroke="rgb(232,26,75)" />
	<polyline points="30.9658,60.7642 34.0103,60.493 35.9475,60.3112 37.9894,60.1042 43.8526,59.4864 49.6245,58.8835 53.106,58.5372 55.055,58.3652 56.5921,58.2555 57.9891,58.1829 59.387,58.1382 60.3852,58.1305 61.6832,58.1523 64.1807,58.2316 68.4993,58.3923 " fill="none" stroke-width="1" stroke="rgb(232,26,75)" />
	<polyline points="30.9719,72.1943 34.2752,71.9218 36.9629,71.6849 40.0471,71.3875 47.0646,70.6768 49.8807,70.3918 52.0855,70.1774 53.9774,70.008 56.0702,69.8407 57.6657,69.732 58.8631,69.6705 60.1612,69.6286 61.1595,69.6186 62.1577,69.6339 63.6554,69.6867 68.4065,69.8944 " fill="none" stroke-width="1" stroke="rgb(232,26,75)" />
	<polyline points="54.0245,85.1554 54.1817,85.323 54.2615,85.371 55.7422,85.8291 56.4549,86.0291 57.7109,86.3592 59.0626,86.7172 59.6507,86.8851 60.2079,87.0635 63.3307,88.1282 66.7542,89.3061 " fill="none" stroke-width="1" stroke="rgb(232,26,75)" />
</svg>
