<?xml version="1.0" standalone="no" ?>
<!DOCTYPE svg PUBLIC "-//W3C//DTD SVG 1.1//EN" "http://www.w3.org/Graphics/SVG/1.1/DTD/svg11.dtd">
<svg width="100px" height="100px" xmlns="http://www.w3.org/2000/svg" version="1.1" >
	<image style="overflow: visible; opacity: 0.4" width="100" height="100" xlink:href="../sample_inputs/s1.png" transform="matrix(1 0 -0.5 0 1 0 )" />
	<polyline points="45.4845,11.6318 44.9862,14.6428 44.8403,15.4276 44.5425,16.7923 44.2277,18.0487 43.8402,19.3883 43.3127,20.9981 42.8947,22.1157 42.3095,23.4891 41.8746,24.3811 41.0839,25.8169 40.4856,26.7926 39.7911,27.7974 39.0186,28.7946 38.2372,29.6915 37.3375,30.6096 36.4692,31.3948 36.235,31.5432 35.6549,31.7596 34.7334,31.9853 34.0782,32.0707 33.8005,32.0582 33.3406,31.9673 33.0721,31.8996 32.7726,31.8196 32.2045,31.671 31.4043,31.4731 30.5112,31.2813 30.4063,31.2881 28.9149,31.7978 28.8058,31.8438 27.9592,32.2658 27.0093,32.7431 25.8878,33.2992 23.9988,34.2129 22.1895,35.0603 20.004,36.0476 17.9893,36.9284 17.0396,37.3266 14.6305,38.3061 " fill="none" stroke-width="1" stroke="rgb(232,26,75)" />
	<polyline points="27.8924,47.5203 29.0024,46.5196 30.0355,45.5755 31.0556,44.6181 32.0003,43.697 33.7441,41.9378 36.1681,39.4431 36.2576,39.3357 36.2984,39.2641 36.3443,39.1459 36.3869,39.0147 36.4538,38.8114 36.5092,38.6743 36.6059,38.4863 37.0103,37.7818 " fill="none" stroke-width="1" stroke="rgb(232,26,75)" />
	<polyline points="27.8924,47.5203 26.7894,48.3909 25.077,49.7272 22.8799,51.4108 21.949,52.0941 20.88,52.8297 18.2106,54.5835 14.8402,56.7412 11.9582,58.5414 10.079,59.6824 8.18691,60.8032 4.99719,62.677 3.42113,63.6142 3.22148,63.7448 3.11319,63.8285 3.06196,63.8737 " fill="none" stroke-width="1" stroke="rgb(232,26,75)" />
	<polyline points="48.9983,58.3128 48.9733,57.3456 48.9595,56.9597 48.9562,56.9545 47.9287,56.4642 46.764,56.0651 45.1403,55.781 41.0889,55.4965 35.3961,55.2922 " fill="none" stroke-width="1" stroke="rgb(232,26,75)" />
	<polyline points="31.1964,55.3402 29.0976,55.4065 27.3988,55.4633 26.7997,55.4879 25.9096,55.5356 25.6972,55.5554 25.0179,55.6503 24.7293,55.7032 24.4412,55.7709 23.7653,55.9441 22.0716,56.3742 21.3244,56.566 19.4852,57.0864 16.6812,58.028 13.0572,59.4646 10.1518,60.772 7.90394,61.8614 6.01994,62.7782 4.66449,63.3974 4.14227,63.5965 3.6723,63.7312 3.06196,63.8737 " fill="none" stroke-width="1" stroke="rgb(232,26,75)" />
	<polyline points="10,68.4952 16.3999,68.484 26.4996,68.4579 30.999,68.4379 35.3987,68.41 " fill="none" stroke-width="1" stroke="rgb(232,26,75)" />
	<polyline points="12.5148,15.7901 14.7695,15.0013 16.6487,14.3232 18.7023,13.5424 20.6459,12.7558 22.9391,11.7685 24.9367,10.8541 26.9993,9.8433 28.9363,8.81197 29.9434,8.18941 30.705,7.60323 32.0308,6.40396 32.5086,5.92928 32.5311,5.89567 32.6226,5.68325 32.6341,5.65886 32.7306,5.48453 32.851,5.28219 32.9165,5.18374 32.9896,5.08389 " fill="none" stroke-width="1" stroke="rgb(232,26,75)" />
	<polyline points="88.4966,6.00001 88.4982,6.07571 88.5047,6.90346 88.5143,12.2006 88.5016,59.9002 88.4803,67.8847 88.4377,73.4992 88.3916,76.3981 88.3186,79.0962 88.2241,81.4932 88.1306,83.189 88.0392,84.3838 87.8672,86.1741 87.6736,87.9629 87.4107,90.2536 " fill="none" stroke-width="1" stroke="rgb(232,26,75)" />
	<polyline points="35.012,10.0036 35.0748,10.4693 35.1306,10.7259 35.1642,10.7727 35.2466,10.8016 40.7087,11.2937 42.8013,11.4632 52.9713,12.2301 54.7634,12.3786 56.055,12.5085 57.2452,12.6518 59.8605,12.996 " fill="none" stroke-width="1" stroke="rgb(232,26,75)" />
	<polyline points="14.6305,38.3061 14.1763,35.7917 13.8258,33.7237 13.5639,31.9478 13.3378,30.0667 13.1508,28.0792 12.9927,25.887 12.8777,23.791 12.5806,17.2981 12.5148,15.7901 " fill="none" stroke-width="1" stroke="rgb(232,26,75)" />
	<polyline points="56.9207,34.4298 57.3145,32.8918 57.676,31.4298 58.1538,29.3872 58.3362,28.5086 58.5597,27.2303 58.9095,24.959 59.1116,23.4742 59.2965,21.8862 59.4646,20.1956 59.5892,18.7018 59.6535,17.705 59.7306,16.1077 59.8605,12.996 " fill="none" stroke-width="1" stroke="rgb(232,26,75)" />
	<polyline points="73.4924,12.0001 73.3549,12.7911 73.2919,13.5066 73.2965,15.7435 75.0319,71.836 75.1165,72.6429 75.281,73.3225 75.5056,73.9998 " fill="none" stroke-width="1" stroke="rgb(232,26,75)" />
	<polyline points="23.0458,19.1191 23.1636,19.2285 23.6655,19.7091 23.7303,19.7861 24.6014,21.0714 27.1546,24.8963 30.3745,29.7198 31.8317,31.8703 32.2178,32.4001 33.5392,34.0787 34.0142,34.6422 34.4962,35.1613 35.8605,36.547 37.0527,37.7382 " fill="none" stroke-width="1" stroke="rgb(232,26,75)" />
	<polyline points="45.0157,34.0682 46.0132,34.1321 48.6078,34.2899 50.604,34.3974 51.4017,34.4248 52.6997,34.4398 54.8989,34.4395 56.9207,34.4298 " fill="none" stroke-width="1" stroke="rgb(232,26,75)" />
	<polyline points="35.0123,40.8453 36.279,41.7976 37.1653,42.4457 38.3101,43.2463 39.4728,44.0207 40.4019,44.6051 41.6034,45.3211 47.9969,49.0462 50.0652,50.2622 52.1875,51.5383 54.2471,52.811 57.628,54.9465 63.9519,58.9777 " fill="none" stroke-width="1" stroke="rgb(232,26,75)" />
	<polyline points="31.1313,55.3411 31.2744,58.8082 31.311,59.8073 31.3476,61.106 31.3764,62.6044 31.4023,64.803 31.4099,66.2022 31.4127,68.4018 " fill="none" stroke-width="1" stroke="rgb(232,26,75)" />
	<polyline points="46.5873,85.8061 46.7152,84.0609 46.8607,82.3713 46.9581,81.5841 47.146,80.507 47.3638,79.5369 47.6346,78.5801 48.0831,77.261 48.5911,75.9687 49.4623,73.9547 49.5967,73.6754 49.6037,73.6719 51.7096,74.0152 51.7331,74.019 " fill="none" stroke-width="1" stroke="rgb(232,26,75)" />
	<polyline points="17.224,74.083 18.4337,76.1548 20.7293,80.1557 21.8212,82.1512 22.7847,84.0535 23.5206,85.6366 23.696,86.0919 23.7973,86.469 23.9444,87.2513 24.249,89.1286 " fill="none" stroke-width="1" stroke="rgb(232,26,75)" />
	<polyline points="35.3132,55.2929 35.3568,58.901 35.4608,67.0001 35.5628,73.9992 35.6571,79.2977 35.7434,83.1956 35.8527,87.5142 " fill="none" stroke-width="1" stroke="rgb(232,26,75)" />
	<polyline points="7.01066,91.933 7.05212,91.6233 7.08046,91.4405 7.11215,91.2803 7.11687,91.2756 7.24647,91.2535 11.1731,90.7527 16.8282,90.0432 18.9114,89.78 20.9934,89.5087 26.8403,88.722 31.9909,88.0095 38.9198,87.0207 40.9944,86.7034 42.9646,86.3673 50.1429,85.0484 52.1003,84.651 56.9741,83.5564 61.5793,82.4802 61.8463,82.4113 61.8532,82.4057 61.9396,82.2362 61.9659,82.1821 " fill="none" stroke-width="1" stroke="rgb(232,26,75)" />
	<polyline points="75.0001,91.5201 75.1531,91.4927 75.8088,91.3984 79.8279,90.9076 82.109,90.667 84.199,90.4894 87.4107,90.2536 " fill="none" stroke-width="1" stroke="rgb(232,26,75)" />
</svg>
