<?xml version="1.0" standalone="no" ?>
<!DOCTYPE svg PUBLIC "-//W3C//DTD SVG 1.1//EN" "http://www.w3.org/Graphics/SVG/1.1/DTD/svg11.dtd">
<svg width="100px" height="100px" xmlns="http://www.w3.org/2000/svg" version="1.1" >
	<image style="overflow: visible; opacity: 0.4" width="100" height="100" xlink:href="../sample_inputs/s2.png" transform="matrix(1 0 -0.5 0 1 0 )" />
	<polyline points="63.9999,31.5334 59.3,31.5024 " fill="none" stroke-width="1" stroke="rgb(232,26,75)" />
	<polyline points="59.2,32.5099 61.778,34.5046 61.8184,34.6127 61.5691,35.704 " fill="none" stroke-width="1" stroke="rgb(232,26,75)" />
	<polyline points="59.1691,35.6891 39.8698,35.7949 35.1708,35.8392 30.7727,35.9137 28.7748,35.9719 26.8781,36.0567 25.1819,36.1546 23.6867,36.2539 23.6556,36.2579 23.4591,36.2957 21.4695,36.6965 21.3702,36.7179 20.9532,36.8138 " fill="none" stroke-width="1" stroke="rgb(232,26,75)" />
	<polyline points="79.1745,37.2076 77.1677,36.9952 75.676,36.8507 74.0831,36.7214 72.3882,36.6144 70.2919,36.5168 67.9941,36.4398 64.1958,36.3428 61.5965,36.2847 " fill="none" stroke-width="1" stroke="rgb(232,26,75)" />
	<polyline points="42,81.5014 40.7982,81.9479 36.6,83.4992 " fill="none" stroke-width="1" stroke="rgb(232,26,75)" />
	<polyline points="61.4998,89.4576 71.0994,89.398 80.9968,89.263 90.5764,88.9943 93.0014,88.8194 94.4299,88.6129 94.9984,88.4938 " fill="none" stroke-width="1" stroke="rgb(232,26,75)" />
	<polyline points="95.9996,87.5008 95.2815,87.1865 94.6243,86.9348 93.4774,86.5957 92.7821,86.4927 61.5521,84.9945 " fill="none" stroke-width="1" stroke="rgb(232,26,75)" />
	<polyline points="58.6477,84.9433 36.5114,84.553 " fill="none" stroke-width="1" stroke="rgb(232,26,75)" />
	<polyline points="6.00003,15.5056 25.8999,15.5203 37.9998,15.5296 46.9997,15.5376 51.6996,15.5433 59.3995,15.5548 " fill="none" stroke-width="1" stroke="rgb(232,26,75)" />
	<polyline points="59.4332,12.16 93.9965,12.5925 " fill="none" stroke-width="1" stroke="rgb(232,26,75)" />
	<polyline points="36.4987,15.5 36.4788,26.2 36.4726,30.1999 36.4644,38.7998 36.4624,48.9997 36.4693,58.8995 36.486,70.6994 36.5012,79.1993 36.5114,84.4993 " fill="none" stroke-width="1" stroke="rgb(232,26,75)" />
	<polyline points="59.4534,12.1603 58.5589,84.8997 " fill="none" stroke-width="1" stroke="rgb(232,26,75)" />
	<polyline points="61.5541,35.6998 61.5508,46.8998 61.5468,59.2997 61.5443,67.8997 61.5427,77.0996 61.5417,89.4577 " fill="none" stroke-width="1" stroke="rgb(232,26,75)" />
	<polyline points="20.9772,60.2978 20.805,58.5615 20.56,55.9739 20.4369,54.4811 20.3799,53.4855 20.3478,52.2882 20.3231,48.89 20.3325,45.4916 20.3567,44.3938 20.4072,43.3973 20.5163,41.903 20.7337,39.3128 20.9532,36.8138 " fill="none" stroke-width="1" stroke="rgb(232,26,75)" />
	<polyline points="79.1745,37.2076 79.3637,39.4081 79.5185,41.4011 79.6486,43.4937 79.7305,45.4873 79.794,48.4832 79.813,51.5809 79.7936,52.8785 79.7487,53.8753 79.6172,55.8231 79.4366,58.1619 79.2582,60.3473 " fill="none" stroke-width="1" stroke="rgb(232,26,75)" />
	<polyline points="20.9772,60.2978 22.3069,60.4266 23.6008,60.5368 25.6932,60.6794 28.1867,60.8052 31.1822,60.9031 35.6797,60.9868 43.3785,61.0673 51.3781,61.1176 58.778,61.1486 " fill="none" stroke-width="1" stroke="rgb(232,26,75)" />
	<polyline points="61.478,61.1378 67.9764,61.0096 70.2747,60.9492 72.3717,60.867 74.1672,60.7678 75.8611,60.6458 77.7532,60.4853 79.2582,60.3473 " fill="none" stroke-width="1" stroke="rgb(232,26,75)" />
</svg>
