<?xml version="1.0" standalone="no" ?>
<!DOCTYPE svg PUBLIC "-//W3C//DTD SVG 1.1//EN" "http://www.w3.org/Graphics/SVG/1.1/DTD/svg11.dtd">
<svg width="100px" height="100px" xmlns="http://www.w3.org/2000/svg" version="1.1" >
	<image style="overflow: visible; opacity: 0.4" width="100" height="100" xlink:href="../sample_inputs/s3.png" transform="matrix(1 0 -0.5 0 1 0 )" />
	<polyline points="29.0425,51.4592 31.0978,51.5821 32.894,51.676 34.7907,51.7499 36.1885,51.7776 37.5865,51.7732 39.484,51.7326 41.0396,51.68 42.3713,51.6234 42.566,51.6133 44.1335,51.5233 44.3401,51.5156 45.5154,51.4976 45.7323,51.4946 45.8355,51.4909 46.0311,51.4749 46.8189,51.3831 47.977,51.225 48.9673,51.0709 51.1616,50.704 " fill="none" stroke-width="1" stroke="rgb(232,26,75)" />
	<polyline points="5.03271,78.96 5.47634,79.2321 6.3578,79.767 6.36853,79.7675 10.4747,77.8465 12.8174,76.7237 15.0537,75.6106 16.9156,74.6433 18.7921,73.6245 20.9359,72.4141 23.0058,71.202 26.8676,68.8732 30.7922,66.4542 33.22,64.9152 35.5618,63.3846 37.4732,62.1068 40.9562,59.7607 42.9545,58.4368 44.051,57.7474 45.0861,57.1476 46.6652,56.2968 47.1113,56.0843 48.0325,55.7047 48.8719,55.3874 49.1546,55.2952 50.0195,55.0511 51.0804,54.7625 53.0079,54.2327 54.6344,53.7585 55.0899,53.5995 55.9848,53.2436 56.6972,52.9863 57.2744,52.8457 59.0281,52.6042 65.5199,51.9297 67.5104,51.742 69.5018,51.5647 71.4189,51.3955 " fill="none" stroke-width="1" stroke="rgb(232,26,75)" />
	<polyline points="6,17.4996 7.36937,17.6402 8.23132,17.6892 37.3023,18.2708 42.6003,18.3496 47.1997,18.3815 50.8993,18.3764 57.8983,18.315 62.2959,18.238 93.3828,17.4995 93.9989,17.4833 " fill="none" stroke-width="1" stroke="rgb(232,26,75)" />
	<polyline points="28.8011,34.5685 31.2935,34.3515 32.2897,34.276 33.5862,34.2022 35.3834,34.1308 37.5815,34.077 40.6803,34.041 48.3795,34.0123 57.6788,34.0174 61.0779,34.0434 63.9764,34.0973 65.974,34.1614 67.5706,34.2385 68.9665,34.328 71.4161,34.5075 " fill="none" stroke-width="1" stroke="rgb(232,26,75)" />
	<polyline points="29.0425,51.4592 28.8283,49.082 28.7591,48.2853 28.681,47.2889 28.6465,46.6914 28.5873,44.9946 28.5539,43.0975 28.556,40.9004 28.5956,38.8036 28.6544,37.207 28.7322,35.7099 28.8011,34.5685 " fill="none" stroke-width="1" stroke="rgb(232,26,75)" />
	<polyline points="71.4161,34.5075 71.4789,35.301 71.6719,37.8933 71.7231,38.79 71.7673,40.1869 71.7948,42.2845 71.7899,44.1826 71.7613,45.6805 71.7314,46.3786 71.568,49.0729 71.4189,51.3955 " fill="none" stroke-width="1" stroke="rgb(232,26,75)" />
	<polyline points="65.4743,72.3968 67.1062,71.1295 68.8436,69.7803 75.7088,64.4369 77.7487,62.8265 79.9247,61.0667 86.5712,55.6128 86.6767,55.52 86.7045,55.4888 86.7929,55.3644 86.9614,55.1164 " fill="none" stroke-width="1" stroke="rgb(232,26,75)" />
	<polyline points="51.2337,50.693 51.7256,52.22 52.1438,53.4448 52.4312,54.1835 53.035,55.5499 53.3905,56.2604 54.2649,57.8277 55.3305,59.6322 55.7618,60.3016 56.9144,61.9466 58.1481,63.6283 59.665,65.612 60.4804,66.6205 62.0383,68.4423 63.7623,70.3851 65.7198,72.5217 66.55,73.3852 67.9724,74.788 69.0628,75.8144 70.3278,76.946 71.6196,78.0469 72.8608,79.0525 74.2839,80.1508 75.9795,81.4064 77.3539,82.3835 78.4294,83.1107 80.1908,84.2515 82.0487,85.4272 83.7401,86.493 86.0947,88.0061 91.4716,91.565 92.3292,92.192 92.7608,92.5605 92.7844,92.5895 92.8786,92.7525 92.9486,92.8796 " fill="none" stroke-width="1" stroke="rgb(232,26,75)" />
	<polyline points="32.7085,65.413 33.3341,67.1073 33.9441,68.8201 34.1433,69.4586 34.3622,70.3257 34.518,71.1055 34.634,71.8927 34.8098,73.4797 34.9633,75.1708 35.0666,76.5661 35.3863,81.4554 35.5399,83.7496 35.6565,85.3447 35.95,89.1031 " fill="none" stroke-width="1" stroke="rgb(232,26,75)" />
	<polyline points="16.0654,91.945 16.5415,91.9581 16.6303,91.9604 16.9512,91.9632 17.1763,91.9501 20.0785,91.6166 23.7458,91.1511 25.9212,90.8376 27.6943,90.538 31.9176,89.7378 39.1686,88.2728 42.6757,87.4838 47.4095,86.2604 51.8016,84.964 61.0194,81.9816 61.6105,81.7377 61.7263,81.6422 61.8691,81.4235 61.8937,81.3658 61.9504,81.1733 61.9576,81.1474 " fill="none" stroke-width="1" stroke="rgb(232,26,75)" />
</svg>
