<?xml version="1.0" standalone="no" ?>
<!DOCTYPE svg PUBLIC "-//W3C//DTD SVG 1.1//EN" "http://www.w3.org/Graphics/SVG/1.1/DTD/svg11.dtd">
<svg width="100px" height="100px" xmlns="http://www.w3.org/2000/svg" version="1.1" >
	<image style="overflow: visible; opacity: 0.4" width="100" height="100" xlink:href="../sample_inputs/s4.png" transform="matrix(1 0 -0.5 0 1 0 )" />
	<polyline points="15.0098,12.0812 15.0122,12.1082 15.2107,14.0846 15.2518,14.2544 15.2778,14.2716 16.9809,14.2443 25.6691,13.9394 29.9622,13.7386 34.9514,13.4367 40.3369,13.0544 43.8241,12.7699 46.2119,12.5411 49.8889,12.1399 53.6614,11.6918 55.7425,11.4179 59.7997,10.8336 61.8811,10.5074 66.0128,9.80472 68.4701,9.35175 73.7647,8.29936 77.9691,7.41514 80.5936,6.8231 80.6999,6.78038 80.7551,6.73069 80.8377,6.60657 80.8452,6.58831 80.9061,6.34425 80.9237,6.28679 80.9574,6.19974 80.9656,6.18074 " fill="none" stroke-width="1" stroke="rgb(232,26,75)" />
	<polyline points="68.1793,29.6717 68.6041,27.9217 69.0052,26.378 69.3973,25.0419 69.9329,23.4356 70.7239,21.2802 72.0999,17.7401 73.4682,14.3318 73.501,14.2811 73.6233,14.1626 73.6384,14.1512 73.7559,14.0779 73.815,14.0417 " fill="none" stroke-width="1" stroke="rgb(232,26,75)" />
	<polyline points="46.5521,12.6024 47.1536,15.5886 47.2825,16.1727 47.524,17.1413 47.7595,18.0087 48.001,18.8378 48.8447,21.6492 49.1816,22.8002 49.4992,23.9557 49.7664,25.0204 50.0061,26.0913 50.199,27.0702 50.3883,28.1524 50.6241,29.5941 " fill="none" stroke-width="1" stroke="rgb(232,26,75)" />
	<polyline points="29.8643,13.8974 30.151,15.3921 30.3711,16.4681 30.531,17.1468 30.9169,18.5924 31.1102,19.2427 31.8131,21.4494 32.1673,22.594 32.4358,23.553 32.7938,25.0038 33.2744,27.1452 33.8417,29.7987 " fill="none" stroke-width="1" stroke="rgb(232,26,75)" />
	<polyline points="25.2208,18.0865 25.2275,18.0983 25.4129,18.4632 25.8598,19.4403 26.4511,20.9058 27.5467,23.906 27.8378,24.8017 28.0311,25.5253 28.2447,26.4978 28.5677,28.1648 28.8902,29.9199 " fill="none" stroke-width="1" stroke="rgb(232,26,75)" />
	<polyline points="11.8691,31.3127 15.0276,30.8669 16.5134,30.6674 17.3069,30.5759 18.6996,30.4447 19.8951,30.3541 21.3916,30.2689 23.1892,30.1965 29.0857,30.021 33.0836,29.9302 44.7812,29.7323 50.9803,29.6516 53.3797,29.6417 62.0787,29.6809 65.4768,29.725 68.674,29.8085 77.3677,30.1122 79.0651,30.1895 80.4611,30.2786 81.4522,30.3652 82.7463,30.5086 84.9277,30.7822 88.1196,31.2013 " fill="none" stroke-width="1" stroke="rgb(232,26,75)" />
	<polyline points="88.1196,31.2013 88.4236,35.3053 88.532,37.0008 88.5987,38.5976 88.6474,41.3933 88.6227,43.1843 88.5101,45.7254 88.4961,45.7412 87.0412,45.9808 " fill="none" stroke-width="1" stroke="rgb(232,26,75)" />
	<polyline points="12.8609,45.977 11.5012,45.6982 11.4846,45.6783 11.4377,42.8871 11.4424,38.5973 11.4852,37.0012 11.5821,35.3056 11.8691,31.3127 " fill="none" stroke-width="1" stroke="rgb(232,26,75)" />
	<polyline points="45.0522,35.1007 45.3883,35.341 45.723,35.6093 50.6414,39.9082 55.3442,44.087 55.3997,44.1694 55.4026,44.2501 55.0451,45.5744 54.9533,45.893 " fill="none" stroke-width="1" stroke="rgb(232,26,75)" />
	<polyline points="36.4962,36 36.5428,38.1995 36.6625,42.9976 36.767,45.8946 36.9515,49.1848 37.1119,50.8515 37.2502,51.5572 37.4438,52.1009 38.0304,53.3366 38.3604,53.9756 38.3686,53.99 38.5019,54.2106 38.7111,54.5375 39.0587,55.0529 39.3037,55.4111 40.5794,57.3493 40.6633,57.5983 40.6251,57.9262 40.4573,58.2675 39.9377,58.9357 39.3262,59.5855 38.3828,60.4706 36.8048,61.8487 34.4296,63.836 32.8716,65.0863 31.205,66.3603 28.9494,68.0153 27.0517,69.354 24.5868,71.0245 22.8289,72.1598 21.1197,73.1917 18.1657,74.8633 15.4389,76.3164 11.0992,78.5158 10.653,78.7145 10.0057,78.9601 " fill="none" stroke-width="1" stroke="rgb(232,26,75)" />
	<polyline points="73.0269,39.1161 73.3636,39.6001 73.4405,39.7037 76.8802,44.092 79.2257,47.1257 81.6089,50.2862 84.4964,54.2039 84.6791,54.4786 84.9854,54.9983 " fill="none" stroke-width="1" stroke="rgb(232,26,75)" />
	<polyline points="17.1242,56.9583 16.9797,56.5485 16.6645,55.6322 16.6254,55.4838 16.6304,55.4497 16.7635,55.2233 17.5224,54.1259 20.1096,50.5765 21.929,48.1963 24.2486,45.325 27.2786,41.7164 27.6522,41.3052 27.7607,41.2095 27.8681,41.1364 27.9451,41.091 " fill="none" stroke-width="1" stroke="rgb(232,26,75)" />
	<polyline points="64.2146,49.7334 64.7233,48.3864 65.2313,47.0825 65.9902,45.2347 66.5574,43.9612 67.2371,42.5657 67.3512,42.3784 67.4014,42.3319 67.5712,42.2374 67.7258,42.1607 67.8427,42.102 67.941,42.0501 " fill="none" stroke-width="1" stroke="rgb(232,26,75)" />
	<polyline points="36.8138,50.9563 38.2067,51.162 41.2748,51.5975 42.6608,51.7695 43.8512,51.8779 45.2444,51.9538 47.1399,51.9987 49.0364,51.993 50.9321,51.9361 52.5256,51.8407 54.3139,51.6779 55.9967,51.4735 57.772,51.2058 59.5042,50.9 60.2227,50.7472 61.9696,50.3203 63.1312,50.0211 64.2146,49.7334 " fill="none" stroke-width="1" stroke="rgb(232,26,75)" />
	<polyline points="37.4232,61.5229 38.3482,62.0838 38.9514,62.4353 39.6521,62.8151 40.543,63.2594 40.9954,63.4539 41.3669,63.5745 41.8452,63.6796 42.3315,63.7407 43.8215,63.8347 45.8167,63.9087 57.2119,64.2063 60.0095,64.2909 61.9055,64.3738 63.2993,64.4652 64.3773,64.5674 65.0814,64.6618 65.7675,64.7838 66.5475,64.9496 67.0319,65.0663 67.5146,65.192 " fill="none" stroke-width="1" stroke="rgb(232,26,75)" />
	<polyline points="6.04828,93.9049 6.06077,93.9018 6.15953,93.8804 7.81581,93.5474 11.0704,92.9042 13.9155,92.3439 16.0717,91.9109 18.7136,91.359 20.7397,90.9114 22.9032,90.4012 25.0359,89.8661 26.967,89.3501 29.1785,88.7226 31.5721,88.006 33.1899,87.4889 36.0285,86.5241 38.5687,85.6161 40.4346,84.9043 42.0966,84.2183 44.0093,83.3667 45.2641,82.7582 46.3151,82.1906 47.859,81.2759 49.013,80.5321 50.9997,79.1559 55.5475,75.8923 58.4483,73.7628 60.0536,72.5447 61.2136,71.6234 62.3638,70.6641 63.3402,69.8094 64.2333,68.9887 64.5746,68.6503 65.1177,68.0652 66.1133,66.9463 66.3694,66.6422 66.9296,65.9393 67.5146,65.192 " fill="none" stroke-width="1" stroke="rgb(232,26,75)" />
	<polyline points="32.2356,65.7146 34.081,67.2408 35.8626,68.6939 37.8958,70.3119 40.0316,71.9603 42.9896,74.1786 48.6091,78.3218 48.7573,78.4161 50.1673,79.1766 50.3276,79.2556 50.4508,79.3101 50.6295,79.3909 51.0679,79.6098 51.9422,80.0786 53.0782,80.7082 55.1736,81.87 57.1925,82.9588 58.79,83.7763 59.5135,84.1075 61.2701,84.8226 63.4162,85.6425 65.4837,86.3881 67.0928,86.9306 68.746,87.4461 71.0172,88.1047 73.4282,88.758 75.561,89.2878 78.9726,90.0553 81.9107,90.6346 84.4688,91.0346 88.1193,91.4607 92.3974,91.8591 92.9823,91.9025 93.0267,91.9048 93.1984,91.9134 93.8555,91.9521 93.9665,91.9596 " fill="none" stroke-width="1" stroke="rgb(232,26,75)" />
</svg>
