<?xml version="1.0" standalone="no" ?>
<!DOCTYPE svg PUBLIC "-//W3C//DTD SVG 1.1//EN" "http://www.w3.org/Graphics/SVG/1.1/DTD/svg11.dtd">
<svg width="100px" height="100px" xmlns="http://www.w3.org/2000/svg" version="1.1" >
	<image style="overflow: visible; opacity: 0.4" width="100" height="100" xlink:href="../sample_inputs/s5.png" transform="matrix(1 0 -0.5 0 1 0 )" />
	<polyline points="25.1926,14.7012 25.3358,17.0079 25.4523,19.1035 25.5497,21.3 25.6322,23.8974 25.7011,27.1958 25.7525,31.1949 25.7837,35.3944 25.8068,40.3943 " fill="none" stroke-width="1" stroke="rgb(232,26,75)" />
	<polyline points="22.4941,40.5 23.3665,45.1985 23.5876,46.7 23.8294,49.3761 24.1747,55.6112 24.3263,60.5988 24.3478,64.8945 24.2919,68.0916 24.1972,70.6877 24.1212,72.0675 24.019,73.5087 23.9415,74.4882 " fill="none" stroke-width="1" stroke="rgb(232,26,75)" />
	<polyline points="53.0408,37.009 53.0984,38.8079 53.2061,42.1058 53.3452,46.3032 53.4146,48.5018 53.5223,52.4989 53.5251,53.2898 53.5101,53.5571 53.4962,53.6681 53.4962,53.6681 54.026,53.5438 54.6943,53.468 55.9001,53.4947 57.9717,53.704 59.11,53.8654 60.1439,54.0303 60.834,54.1306 61.5265,54.2066 62.2747,54.2568 62.9168,54.2682 64.3128,54.2355 65.6077,54.1668 67.0989,54.0421 68.5856,53.8745 70.0674,53.6662 71.7427,53.3926 72.4289,53.2629 74.0199,52.931 " fill="none" stroke-width="1" stroke="rgb(232,26,75)" />
	<polyline points="35.1734,79.9884 35.2547,79.7838 35.4778,79.3114 35.8798,78.63 36.674,77.5412 37.3191,76.846 40.4825,73.9669 42.9658,71.7833 45.3018,69.7473 46.7618,68.455 48.0523,67.2765 49.8719,65.5638 50.8012,64.6565 52.0606,63.3727 53.3624,61.9915 54.7646,60.4325 55.525,59.5127 55.9744,58.8679 56.4833,57.9594 56.5118,57.7987 56.3763,56.996 56.2806,56.7257 56.0717,56.3684 55.2112,55.1124 55.1777,55.0416 55.0813,54.6486 54.945,53.8999 54.9105,53.5874 54.8798,52.99 " fill="none" stroke-width="1" stroke="rgb(232,26,75)" />
	<polyline points="39.0399,14.9845 39.0685,14.8412 39.1081,14.6946 39.2057,14.4314 39.2253,14.4167 40.4546,14.2797 44.1535,13.9417 53.4194,13.1535 56.3081,12.902 60.7873,12.4809 64.6636,12.0703 69.325,11.4933 76.3459,10.4789 81.8461,9.52327 85.9403,8.62936 86.1314,8.4921 86.906,7.16603 86.9694,7.0384 " fill="none" stroke-width="1" stroke="rgb(232,26,75)" />
	<polyline points="12.7861,14.662 15.3006,14.4804 16.1974,14.4303 17.5941,14.3884 18.9911,14.3816 20.287,14.4122 21.7817,14.4864 25.1926,14.7012 " fill="none" stroke-width="1" stroke="rgb(232,26,75)" />
	<polyline points="12.7512,74.4369 12.4933,71.376 12.4367,70.579 12.3537,68.9824 12.2813,67.0849 12.2134,64.4866 12.1559,61.0878 12.1175,57.1884 12.0997,53.0887 12.0974,48.789 12.1016,46.9891 12.1098,44.8892 12.1149,43.2894 12.1211,40.3897 12.1301,37.1898 12.1519,33.2902 12.1984,28.891 12.2705,24.8927 12.3618,21.6957 12.463,19.3002 12.5477,17.905 12.7861,14.662 " fill="none" stroke-width="1" stroke="rgb(232,26,75)" />
	<polyline points="76.493,30.699 76.8194,29.4709 77.0404,28.7045 77.4684,27.377 77.7454,26.635 78.3715,25.1702 79.2436,23.2645 80.4015,20.8267 82.1326,17.2224 82.7034,16.0136 82.724,15.9462 82.7606,15.6682 82.8219,15.0416 " fill="none" stroke-width="1" stroke="rgb(232,26,75)" />
	<polyline points="47.1806,17.0019 47.1993,17.0129 47.3064,17.0756 47.4368,17.1505 47.5853,17.2327 47.6647,17.2739 47.7295,17.305 47.7577,17.3179 47.9916,17.4265 48.0054,17.4398 48.0556,17.551 48.7049,19.2775 49.7817,22.2331 50.1873,23.4159 50.4795,24.3687 50.6805,25.1388 51.0756,26.8904 51.185,27.4764 51.3598,28.6613 51.6378,30.7387 " fill="none" stroke-width="1" stroke="rgb(232,26,75)" />
	<polyline points="62.2294,12.475 62.8467,14.951 63.2255,16.3995 63.4497,17.1636 64.0329,18.9691 65.1955,22.481 65.6887,24.002 66.0644,25.2435 66.3196,26.2044 66.4605,26.8806 66.5405,27.466 66.6518,28.7569 66.778,30.57 " fill="none" stroke-width="1" stroke="rgb(232,26,75)" />
	<polyline points="39.5433,31.7672 42.8013,31.4439 44.7907,31.2682 47.4807,31.0753 50.9725,30.8751 52.8691,30.8002 54.9948,30.7616 68.0662,30.6762 72.4646,30.6788 74.2612,30.7139 76.1559,30.8004 78.3482,30.9514 81.0361,31.1863 83.1229,31.4044 84.9076,31.6227 89.3897,32.217 " fill="none" stroke-width="1" stroke="rgb(232,26,75)" />
	<polyline points="39.3948,41.9977 39.3973,41.7678 39.4736,36.3985 39.5433,31.7672 " fill="none" stroke-width="1" stroke="rgb(232,26,75)" />
	<polyline points="89.3897,32.217 89.7315,35.0834 89.973,36.8626 90.6905,41.5576 90.7589,41.9252 90.7692,41.9401 90.8525,41.9884 " fill="none" stroke-width="1" stroke="rgb(232,26,75)" />
	<polyline points="60.068,36.0836 60.4411,36.3182 61.2017,36.8645 64.8945,39.8247 66.5521,41.3254 69.3192,44.1572 69.6521,44.5534 69.9704,44.9993 " fill="none" stroke-width="1" stroke="rgb(232,26,75)" />
	<polyline points="12.1433,40.4359 13.0007,40.4426 15.0005,40.4539 17.5001,40.4605 22.6997,40.4612 24.4995,40.4575 25.8066,40.452 " fill="none" stroke-width="1" stroke="rgb(232,26,75)" />
	<polyline points="80.1186,39.0368 80.3527,39.3867 80.6065,39.7298 84.6763,44.8498 86.1722,46.726 87.9119,48.9178 90.5374,52.2566 90.6839,52.4608 90.9618,52.8934 " fill="none" stroke-width="1" stroke="rgb(232,26,75)" />
	<polyline points="38.1658,55.9757 38.3331,55.4132 38.3894,55.2367 38.4283,55.1405 38.4973,55.0133 40.0578,52.5025 41.0196,50.9824 42.3883,48.8439 43.5467,47.0207 44.8651,44.8986 45.8396,43.2726 46.6311,41.8928 46.7674,41.6288 46.9964,41.1334 " fill="none" stroke-width="1" stroke="rgb(232,26,75)" />
	<polyline points="74.0199,52.931 74.3317,52.2238 74.7912,51.1174 75.238,49.9051 75.8005,48.1149 76.5714,45.2959 76.7053,44.6559 76.7935,44.0346 " fill="none" stroke-width="1" stroke="rgb(232,26,75)" />
	<polyline points="54.0272,61.4306 56.2075,62.8661 56.7973,63.24 57.3989,63.5934 58.1004,63.9709 58.5477,64.1822 59.0994,64.402 59.662,64.5893 60.0136,64.6775 60.3337,64.7254 61.7249,64.8483 63.3196,64.963 67.5101,65.2391 68.8056,65.3349 70.2973,65.4711 71.9834,65.6565 72.4733,65.7315 73.4498,65.9299 73.8333,66.0286 74.2084,66.1537 74.7632,66.3727 75.5887,66.7269 76.5328,67.146 " fill="none" stroke-width="1" stroke="rgb(232,26,75)" />
	<polyline points="29.0232,93.8618 29.8101,93.8059 30.1353,93.7678 30.852,93.6363 31.996,93.3712 35.791,92.3771 37.9038,91.7756 40.8883,90.8509 43.7078,89.9195 45.7787,89.186 47.5498,88.5061 49.6723,87.6282 51.6809,86.7397 54.212,85.552 55.9991,84.6629 57.6743,83.7747 58.3614,83.3731 59.7038,82.5097 61.4396,81.334 62.1653,80.8073 64.1415,79.28 64.9938,78.5874 66.9288,76.9357 68.7689,75.3149 70.2607,73.9517 71.764,72.5226 72.6107,71.6761 73.7808,70.4461 74.315,69.8538 75.0284,69.0183 75.728,68.1703 76.0394,67.78 76.5328,67.146 " fill="none" stroke-width="1" stroke="rgb(232,26,75)" />
	<polyline points="49.2455,66.254 51.128,67.9877 53.0368,69.7524 54.5749,71.1816 57.3576,73.7691 59.2709,75.5286 61.2038,77.2648 62.8639,78.7036 64.7836,80.2986 66.0367,81.2863 67.4784,82.3574 68.298,82.9244 69.1405,83.4579 70.2591,84.1137 71.6576,84.8855 72.6329,85.3888 74.0724,86.0824 75.5269,86.7444 76.9368,87.3496 78.4773,87.9737 79.9702,88.5452 81.5672,89.1241 82.9842,89.6127 84.4065,90.0865 86.3969,90.7535 88.4928,91.4993 92.4248,93.0142 93.3158,93.4253 93.8851,93.7532 93.9598,93.8046 " fill="none" stroke-width="1" stroke="rgb(232,26,75)" />
	<polyline points="12.7512,74.4369 15.9958,74.628 17.192,74.6814 18.3889,74.7029 19.8863,74.6915 21.2832,74.6501 22.28,74.599 23.876,74.495 " fill="none" stroke-width="1" stroke="rgb(232,26,75)" />
</svg>
